<svg xmlns="http://www.w3.org/2000/svg" xmlns:xlink="http://www.w3.org/1999/xlink" fill="none" viewBox="0 0 200 145"><g clip-path="url(#a)"><path fill="#ebe9dc" d="M8.362 33.16 0 70.16 97.86 145l81.814-4.866L200 70.488l-69.378-56.96L73.942 0z"/><path fill="#e24b1d" d="M165.418 101.232c-.402-6.172-3.136-18.312-5.751-23.909-.717-1.536-1.969-2.42-2.595-3.97 2.027-1.752 2.35-3.048 1.578-5.673-.983-3.344-6.92-10.145-9.78-12.236-1.544-1.13-3.187-1.583-4.625-2.714 4.768-3.204-.333-8.777-3.789-10.885-6.526-3.979-14.983-5.214-22.512-4.862-3.357-3.187-4.649-5.586-9.662-6.412-5.795-.954-9.838 1.029-15.174 2.571-1.867-3.23-4.686-5.515-8.376-6.33-2.452-.542-3.584.345-5.73.981-.46-.044-.29-.863-.568-1.113-2.914-2.61-7.482-4.267-11.331-2.788-1.646.632-3.122 2.473-4.19 2.564-1.581.136-4.448-1.299-6.662-1.394-5.713-.24-6.948 1.804-6.424 7.316-6.777.734-15.46 3.87-9.335 11.694.03.67-9.342 5.004-10.998 7.694-2.503 4.064-1.217 5.455 1.14 9.109 13.63 6.131 26.352 14.127 39.36 21.104 6.542 3.509 13.371 7.099 19.822 10.909 6.604 3.901 10.658 7.586 16.303 12.445 1.157.995 2.309 1.817 3.296 2.676 5.73 4.995 11.045 11.038 17.452 15.267 8.682 5.732 20.122 6.731 28.42-.297 1.197-1.012 5.927-6.192 6.652-7.367 2.758-4.459 3.819-9.23 3.482-14.377zm-54-65.795c1.516 1.045 1.897 2.636 3.013 3.664 1.839 1.695 7.345 1.11 9.855 1.482 6.703.998 12.175 1.848 16.871 6.923.517.559 1.592-.027 1.047 2.186l-3.019 1.34c-1.67 2.392 4.679 5.113 6.345 6.402 2.901 2.243 6.741 5.586 8.761 8.594 5.794 8.618-6.407 4.233-10.056 6.003-2.993 1.455 1.554 5.695 2.924 7.437 1.279 1.624.864 1.147 1.779 3.09.275.588 1.265.368 1.353.859.527 2.923-3.047 4.764-2.618 7.116.445 2.446 5.24 5.096 5.89 10.171.299 2.352-1.088 9.44-2.595 11.318-1.241 1.547-4.139.948-5.978.873-.596-.423-2.979-10.103-3.289-11.741-.16-.856.435-1.746.316-2.372-2.465-12.929-8.257-35.318-16.527-45.385-5.064-6.165-10.92-10.516-18.272-13.782-1.874-.832-10.134-2.676-10.502-3.535 4.034-2.071 10.706-3.394 14.698-.64zM47.001 36.56c1.765-.298 5.166.25 6.24-.45 1.83-1.191-1.764-6.798 1.051-7.627 3.057-.896 10.968 3.726 13.011 2.308.98-.684.585-2.565.63-3.705 4.76-.704 7.9 2.338 11.123 5.292 4.996-3.682 7.781-1.881 10.964 2.7-2.101.125-4.274-.162-6.37-.01-10.538.765-23.114 1.661-33.136 4.987-2.363.785-4.39 3.14-7.27 2.27l-1.429-3.559c-.003-.335 4.367-2.067 5.186-2.206m107.575 81.736c-.537.548-.734 1.39-1.173 1.807-5.931 5.606-15.344 5.014-22.112 1.424-8.256-4.378-18.741-15.047-25.865-21.564-9.621-8.804-23.761-15.998-35.545-22.542-10.78-5.986-23.4-11.48-33.857-17.585-2.867-1.675-5.57-2.65-3.19-6.08 4.917-7.089 27.576-12.865 36.16-13.958 18.214-2.321 34.51-1.773 48.729 11.017 10.477 9.427 15.796 25.723 19.003 39.342 1.449 6.162 1.367 12.899 2.982 19.003.721 2.724 1.694 6.706 4.891 7.106 5.135.642 10.225-.992 14.357-3.953 1.153 1.32-3.462 5.049-4.38 5.983m4.853-10.842c-.571.616-2.357 1.445-3.142 2.196.034-1.57 1.078-2.764 1.292-4.371.541-4.061-.092-6.422-2.068-9.843-.721-1.246-3.601-4.413-3.839-5.536-.119-.552 1.581-2.67 1.806-4.05.683-4.24-2.629-7.911-5.224-10.821l6.009-.673c1.082 2.778 2.398 5.47 3.391 8.3 1.554 4.436 3.52 11.386 3.999 15.99.333 3.185.021 6.389-2.221 8.805z"/><path fill="#e24b1d" d="M55.53 54.578c-.727.044-2.288 2.244-2.026 3.177 5.094 7.53 7.614-3.522 2.027-3.177M73.324 67.07c-2.187 4.991 6.084 6.825 4.6.68zM80.995 52.334c-4.686-.054-1.186 5.685 3.007 4.047.31-2.27-.572-4.02-3.007-4.047"/></g><defs><clipPath id="a"><path fill="#fff" d="M0 0h200v145H0z"/></clipPath></defs></svg>