<svg width="109" height="109" viewBox="0 0 109 109" fill="none" xmlns="http://www.w3.org/2000/svg">
<g clip-path="url(#clip0_158_2269)">
<path d="M27.1174 17.0224L8.35658 48.2088L9.7826 77.1821L47.9834 101.793L91.5272 81.439L98.9037 35.1631L83.4033 16.8231L47.7877 7.64242L27.1174 17.0224Z" fill="#1D8782"/>
<path d="M87.5417 55.1797C86.6518 54.7483 85.6058 54.7047 84.7648 54.3908C84.2568 54.2022 83.8757 53.8332 83.4213 53.6622C81.914 53.0978 80.3864 53.1824 79.4917 51.6618C78.3845 49.7812 79.0819 47.2662 79.8406 45.3841C80.8102 42.9759 82.3929 39.9232 83.6198 37.5889C84.5884 35.7464 86.0822 33.7644 86.8941 31.998C87.0137 31.7366 87.2945 31.62 87.1918 31.1762C86.8562 29.7328 85.047 30.9096 84.0987 31.0489C82.6754 31.2581 80.8823 31.0409 79.4998 31.1722C78.9551 31.2243 78.5505 31.6056 78 31.6597C76.2619 31.8341 74.275 31.3191 72.5649 31.0322C71.7117 30.3928 70.6574 30.5429 69.8041 29.9184C69.2885 29.5404 68.2662 28.1051 67.8634 27.505C67.703 27.2666 67.3183 26.5862 67.1793 26.3385C66.586 25.2755 65.6669 22.6777 65.3542 21.4625C65.1265 20.5738 65.2716 17.8711 64.432 17.5734C63.6904 17.3102 62.8433 18.7249 61.9561 18.6303C62.0839 19.0051 62.0694 19.2127 61.8532 19.5582C60.9712 20.9641 58.9227 23.0718 57.7083 24.2084C54.8487 26.8859 54.0604 27.5651 50.3511 25.2827C47.8734 23.7565 46.2008 21.5394 44.0664 19.8645C42.6492 18.7518 42.5507 19.9674 42.42 21.3417C42.1872 23.7879 42.509 25.9554 41.5151 28.3747C40.8825 29.9161 38.8348 33.1179 37.3896 33.9421C36.9116 34.2141 36.4366 34.1131 36.0573 34.3081C34.6591 35.0243 32.2639 36.4943 30.7581 36.727C29.0825 36.9864 26.2294 36.6674 24.3961 36.7373C23.3071 36.7791 22.689 36.9431 23.1703 38.1346C23.3581 38.6007 24.1804 39.2265 24.3115 39.4526C25.4041 41.3359 26.6689 44.9145 27.1495 47.0147C28.5458 53.1145 22.7164 57.3969 18.8858 61.059C18.5379 61.3923 17.8987 61.5017 17.7291 62.1935C17.9002 62.4858 18.1173 62.7608 18.4419 62.8912C19.9084 63.4815 21.992 63.795 23.4902 64.3914C23.7425 64.4925 23.6112 64.8752 23.8663 64.9746C24.876 65.3673 26.0943 65.666 27.0756 66.1918C29.1692 67.315 30.1427 69.2623 30.2884 71.6056C30.4416 74.0699 29.3383 77.3925 28.5159 79.7344C28.1712 80.7162 27.4317 81.2233 28.0347 82.3627C28.5236 82.4862 29.0423 82.4764 29.5396 82.4077C33.2578 81.8908 37.8504 79.6941 41.4412 79.6041C43.4232 79.5539 43.9923 82.1215 45.2836 83.306C46.1701 84.6656 47.6931 88.226 48.708 89.2209C48.9776 89.4854 49.5787 89.6198 49.9137 89.8859C50.5467 89.8914 52.2014 86.0842 52.6694 85.3247C53.5794 83.848 55.1689 81.7552 56.2481 80.3796C56.8039 79.6733 58.7946 78.1615 59.6233 77.9777C60.2248 77.8449 61.5252 77.9627 62.1888 78.0471C65.2396 78.4364 67.0215 79.7814 69.7562 80.6482C70.5075 80.8868 72.59 81.3741 73.1409 80.6801C73.4912 80.2382 73.373 77.5808 73.4688 76.741C73.8112 73.7315 74.1019 69.4868 75.237 66.7138C76.0235 64.7922 76.7884 64.3214 78.1585 63.0465C80.1079 61.2325 82.1358 59.6373 84.3753 58.1008C85.1596 57.563 87.3116 56.6399 87.6417 55.882C87.7479 55.6367 87.8467 55.3237 87.5429 55.1766L87.5417 55.1797ZM79.7538 59.4419C78.2161 61.1264 76.1092 62.3781 74.7494 64.3306C71.9733 68.3191 72.493 74.7346 71.8769 79.4338C69.9347 79.3454 68.2365 78.1089 66.4551 77.5328C62.8095 76.3524 58.6727 75.5801 55.7396 78.5891C54.1252 80.2447 51.2461 84.4812 50.1683 86.5515C49.9155 87.0383 49.8863 88.1974 49.2997 87.398C48.9575 86.9321 48.7102 86.0393 48.3774 85.5102C47.2027 83.6399 46.1536 81.6266 44.9643 79.86C44.8465 79.6848 43.1592 78.3522 42.8809 78.2756C38.4088 77.8296 34.1821 79.9661 29.8394 80.7439C31.1329 76.8629 32.8867 71.8637 31.0507 67.8808C30.6273 66.9618 28.8673 65.2734 27.9628 64.8448C27.3852 64.5717 26.8249 64.6163 26.3028 64.4007C24.8475 63.802 23.1771 62.6803 21.5579 62.0233C21.2577 61.9011 20.9307 61.9134 20.6166 61.9038C20.5372 61.4713 20.7253 61.4325 20.9399 61.1881C21.454 60.5983 22.7751 59.8666 23.3836 59.2878C25.1405 57.6153 28.2742 53.4381 28.748 51.0985C29.642 46.6734 27.2028 42.1094 25.3455 38.2561C26.1642 38.2468 27.004 38.4109 27.8215 38.3883C31.2133 38.2979 32.9437 37.7991 35.9503 36.3425C38.3044 35.2012 39.655 34.5174 41.1563 32.2824C41.8865 31.1941 43.673 27.7049 43.734 26.5356L43.9532 22.321C44.9221 22.3995 44.6335 22.6311 45.0003 22.9538C47.1649 24.8548 49.8355 27.381 52.6671 28.1843C53.9536 28.5498 55.7652 28.0454 56.8201 27.2241C57.4345 26.7458 57.702 26.1211 58.1908 25.6671C58.5121 25.3688 58.9706 25.2649 59.17 25.0663C59.5713 24.6645 63.3963 19.8701 63.5919 20.138C63.7807 20.7005 63.7071 21.4715 63.861 21.9747C64.7536 24.8806 65.4633 26.5778 67.2242 28.9727C67.3759 29.1792 67.3164 29.6194 67.5302 29.8902C67.597 29.9749 69.0311 31.2642 69.1448 31.3419C70.299 32.1138 73.2996 32.8118 74.715 32.9715C78.0423 33.3485 81.217 32.609 84.5115 32.5939L78.1785 45.0856C77.5941 46.2799 77.686 47.4492 77.5596 48.7013C77.5183 49.1117 77.2531 49.4912 77.2323 49.8479C77.1909 50.5626 78.4697 53.2492 79.0439 53.7215C79.8631 54.3966 84.7639 55.6202 84.7492 56.0624L79.7492 59.4408L79.7538 59.4419Z" fill="#EBE9DC"/>
<path d="M74.1186 54.6532C76.0966 47.1255 71.5406 37.9826 64.6484 34.5639C56.0381 30.2919 46.1494 32.9238 39.2858 39.1138L36.1901 42.7576C34.9606 42.8905 32.2423 43.2812 31.768 44.6128C31.5152 45.3208 31.435 48.5613 31.4582 49.5049C31.5747 54.2989 32.5513 60.5393 34.2986 64.9501C35.5027 67.9891 37.073 70.1216 39.8222 71.8838C50.2766 78.5851 62.8763 74.172 70.0056 64.9109C70.3668 64.4413 70.6713 63.4586 71.0497 63.1508C71.3628 62.8948 72.1123 62.7906 72.5639 62.5225C74.5523 61.3405 76.9034 56.1599 74.1171 54.6534L74.1186 54.6532ZM45.5664 36.5601C52.864 32.7178 62.3224 33.0408 68.3505 39.1228C69.0345 39.8141 71.0264 42.6759 71.2778 43.5639C71.3639 43.8696 71.1457 44.2094 71.2369 44.4375C71.4266 44.9093 72.0134 45.4221 72.2925 46.2365C73.1212 48.6492 72.8964 51.595 72.9004 54.1348C72.6922 54.3341 71.0468 53.1746 70.6289 52.9974C61.9171 49.2791 50.8776 45.0697 41.6249 43.3822C41.0079 43.2699 38.1946 43.1182 38.2387 42.5695C40.3075 40.2878 42.8217 38.0057 45.5651 36.5617L45.5664 36.5601ZM49.7212 56.8472C50.7534 55.4267 53.0645 55.7605 54.6592 54.6441C55.7266 53.8975 58.0102 50.151 58.9645 50.1981C59.5446 50.2275 60.49 51.2419 61.41 50.915C61.5436 51.0503 60.5809 52.4513 60.3971 52.7094C59.4117 54.0872 57.3517 57.0466 55.8323 57.4809C54.6156 57.8279 53.9324 57.7229 52.8361 58.7675C52.4004 59.1827 51.6703 60.985 50.9985 60.4336C50.885 60.3411 49.4587 58.1054 49.4239 57.963C49.2965 57.4396 49.4392 57.2386 49.7227 56.8471L49.7212 56.8472ZM48.7837 55.4981L46.7738 51.3612C46.6209 51.2425 46.3024 51.2496 46.0983 51.2763C45.3028 51.3801 43.0434 53.7067 42.1518 54.2909C41.8233 54.5067 41.4234 54.518 41.1284 54.6922C39.6232 55.5766 38.6597 56.4255 36.6615 56.0362L38.1015 54.3558C41.6499 54.035 42.6384 51.5894 44.7219 49.4579C45.1689 49.0016 47.9873 46.8547 48.4045 46.8034C49.9235 47.248 51.5364 47.5775 53.0296 48.0659C53.6669 48.2744 56.739 49.2809 56.8019 49.6777C56.7497 49.9628 56.5924 50.3878 56.3937 50.5774C56.2114 50.7508 55.8109 50.771 55.571 51.0325C54.9181 51.7487 54.0878 53.1531 53.2239 53.6636C52.0906 54.3358 49.785 53.724 48.7836 55.4967L48.7837 55.4981ZM33.106 48.5546C33.0073 48.3421 33.3624 44.9692 33.4998 44.8428C35.9511 44.4205 38.305 44.3111 40.7379 44.885C40.5561 46.3187 38.8078 46.8176 37.7079 47.5151C36.103 48.5329 36.5996 48.0663 34.9942 48.5008C34.327 48.6809 33.6937 49.8245 33.1076 48.556L33.106 48.5546ZM33.726 51.9921C33.7918 51.7088 35.0426 50.2929 35.3485 50.1236C35.9322 49.8038 36.4146 49.9724 36.9682 49.7681C37.8082 49.4586 40.0019 48.3328 40.6681 47.8024C41.1663 47.4055 42.493 45.2778 42.653 45.2579L46.2166 46.0447L42.6519 49.1476C41.7739 51.8551 39.4786 51.8036 37.5962 52.9243C36.9006 53.3385 35.1806 55.2809 34.3854 54.6245C34.1511 54.0853 33.6202 52.4453 33.726 51.9921ZM69.4034 62.9995C68.9221 64.2352 66.0105 67.2349 64.8926 68.1508C58.6686 73.2516 49.0441 75.5946 41.7163 71.2876C37.1869 68.6241 36.0502 65.643 34.6791 60.7302C34.5793 60.3708 34.2589 60.0677 34.195 59.7794C34.0014 58.907 34.4236 58.2347 34.5678 57.4056C36.3191 57.3147 37.7758 57.98 39.5053 57.5036C40.9491 57.1055 42.1914 55.9992 43.323 55.2232C43.7097 54.9593 44.756 54.1239 45.0587 54.139C46.8599 54.2279 47.3808 57.637 48.0413 58.942C48.2262 59.3074 49.9731 62.0673 50.1179 62.1957C51.0424 63.0055 54.122 63.5378 55.3567 63.4134C55.651 63.3832 57.3073 62.9191 57.5744 62.7992C58.32 62.4638 59.5443 60.8973 60.1407 60.2647C60.2752 60.1223 60.5971 60.0852 60.7666 59.9011C61.3141 59.3039 62.4161 57.2894 63.029 57.1512C65.2839 57.4378 67.351 58.5293 69.436 59.3682C69.0415 60.4925 69.7615 62.0699 69.4004 62.9997L69.4034 62.9995ZM71.5034 61.346C70.923 61.6016 71.0963 60.8501 71.1057 60.6014C71.1374 59.7924 71.3432 57.9365 70.6937 57.3683C70.3658 57.0823 66.7667 55.5503 66.1495 55.3683C64.3939 54.8494 63.1283 54.7226 61.5178 55.6429C60.9255 57.4584 58.3969 60.3727 56.7729 61.2912C55.62 61.9429 54.2415 61.7978 52.9873 61.5468C52.8931 61.0473 53.2045 60.9755 53.4652 60.6973C55.1281 58.9173 54.5604 59.589 56.6302 58.9818C58.0183 58.5739 58.3726 57.6521 59.1589 56.7133C59.9493 55.7697 60.8157 54.8121 61.6828 53.8291C62.1797 53.2646 62.1137 52.5607 63.0703 52.2959C63.7632 52.1046 64.1847 52.2043 64.8481 52.3883C66.4076 52.8204 70.6961 54.7998 72.1556 55.6504C72.2338 55.6955 72.1976 56.0119 72.421 56.1379C73.2955 56.6315 73.8416 56.1531 73.8106 57.7845C73.0317 58.8933 72.8386 60.7585 71.5034 61.346Z" fill="#EBE9DC"/>
</g>
<defs>
<clipPath id="clip0_158_2269">
<rect width="92.4444" height="93.8095" fill="white" transform="translate(4.0332 11.4707) rotate(-5.00034)"/>
</clipPath>
</defs>
</svg>
