<svg xmlns="http://www.w3.org/2000/svg" xmlns:xlink="http://www.w3.org/1999/xlink" fill="none" viewBox="0 0 93 94"><g clip-path="url(#a)"><path fill="#ebe9dc" d="m6.129 27.406 9.73 38.242 8.65 1.84-2.073 19.262 48.185 3.011 1.935-37.074L91.46 21.689 80.172 7.654 48.046 19.57z"/><path fill="#1d8782" d="M79.94 20.321c-5.787-2.27-14.103 2.74-17.186 7.542-1.292 2.012-1.94 4.388-4.175 5.642-1.16.65-5.262 1.88-4.623-.475.464-1.709 3.305-1.729 3.44-2.559.18-1.105-2.793-2.081-3.67-2.28-5.017-1.142-11.066 2.08-13.552 6.418-.938 1.636-1.58 3.932-1.278 5.794.303 1.877 1.071 3.117 2.06 4.681.304.48 1.156 1.2 1.237 1.65.063.345-.138 1.673-.288 1.974-.61 1.216-4.3.316-5.543 1.008-.585-1.812-1.216-3.69-1.934-5.452-1.312-3.222-2.859-6.838-4.363-9.963-.364-.756-1.23-2.604-1.656-3.156-.192-.25-.5-.573-.788-.678-.286-.105-4.31.96-4.908 1.166-1.49.512-4.004 1.724-5.328 2.57-2.7 1.725-1.878 3.017-.993 5.562 2.032 5.852 5.117 11.731 7.334 17.349.261.663 1.097 2.062 1.908 1.783 1.823-.681 3.879-.934 5.708-1.47.548-.159 2.553-1.26 2.82-.926l-1.04 23.437c.018 1.96 1.868 1.334 3.183 1.387 7.09.281 14.209.52 21.304.83.864.038 1.815-.299 2.76-.019.01-.74.732-1.453.797-2.087.79-7.54 2.105-15.64 2.255-23.202.013-.653.218-1.32.124-1.947-.087-.576-.797-2.083-1.356-2.343-.968-.448-2.862-1.049-3.928-1.342-.4-.11-1.439-.289-1.976-.402-.587-.122-1.243.105-1.834-.352-.148-.257.394-2.64.588-2.816.093-.085 1.08.158 1.524.086.335-.053 3.562-1.691 3.848-1.946.147-.131 2.259-2.987 2.34-3.166.507-1.139.789-4.034 2.092-4.64 1.32-.616 1.34 2.534 3.075 2.716.43.047 2.18-.666 2.583-.922 1.239-.784 3.669-4.33 4.072-5.767.23-.82.03-1.39.132-1.97.426-2.422 1.896-6.557 4.068-7.906.7-.435 2.16-.67 2.527-.962 1.412-1.12-.27-2.417-1.362-2.847zM25.72 57.293c-.227-.045-1.71-3.595-1.957-4.177-.302-.715-.533-1.32-.824-1.986-2.088-4.77-4.298-9.474-5.932-14.427.27-.237.49-.714.736-.907 2.2-1.71 5.497-2.389 8.08-3.254.491-.165.825-.754 1.303-.38.56.442 1.811 3.804 2.229 4.705.715 1.537 1.672 3.367 2.391 5.063.897 2.115 1.63 4.303 2.595 6.39l-.444 1.126c-.308-.305-.497-.649-.68-1.039-1.972-4.228-3.622-9.79-5.945-13.707-.141-.237-.433-.688-.628-.828-.105-.075-.849.04-.882.069-.134.118-.068.907-.002 1.183.335 1.404 1.894 4.1 2.54 5.618 1.08 2.543 2.001 4.967 3.12 7.529.878 2.005 2 3.886 2.67 5.991-.413 1.259-6.94 2.51-8.37 3.032zm35.866 1.429c-.249 4.355-.403 8.764-1.282 13.038l-.927 8.827-24.514-.734.866-24.354 26.047-.1c.396 1.2-.132 2.306-.192 3.324zm-2.173-5.649c.043.855-.231.459-.748.533-4.186.6-10.34.347-14.748.407-1.991.026-3.993-.104-5.971-.033.046-2.705 1.087-3.187 3.544-3.26.68-.02 1.006.62 1.6-.36l1.573-6.574.867-1.592 8.517 1.067c.566.429-1.163 5.834-1.356 6.892-.11.604-.18 1.663.54 1.846.163.041.484-.09.797-.018 1.782.41 3.57.91 5.385 1.092M77.6 23c-2.07 1.697-3.191 4.06-3.928 6.605-.687 2.38-.478 4.237-1.926 6.466-.647.995-2.035 2.616-3.317 2.451-.444-.056-1.918-2.113-3.06-2.532-.22-.082-1.895.46-2.063.593-.185.146-.577.957-.711 1.249-1.014 2.202-1.41 4.643-3.28 6.427-.798.763-3.627 2.435-3.949.568-.146-.852.746-1.62.08-2.434-.809-.988-5.452-1.118-6.908-1.315-1.038-.14-2.678-.892-3.589-.544-.872.333-1.62 2.838-2.01 3.739-.117.27-.12.655-.49.532-.146-1.077-1.296-2.03-1.692-3-.435-1.065-.423-2.681-.225-3.805.365-2.068 1.8-4.118 3.338-5.351 1.716-1.374 3.952-2.672 6.29-3.034 1.495-.232 2.984-.017 4.417.4-.326.565-1.02.836-1.446 1.32-1.58 1.802-.989 4.433 1.54 4.834.373.06 2.226-.417 2.685-.575 1.79-.615 3.156-1.372 4.31-2.857 1.423-1.833 2.283-4.405 3.991-6.192 1.815-1.899 5.957-4.288 8.482-4.89 1.64-.392 3.953-.01 5.61.24L77.6 22.998z"/><path fill="#1d8782" d="M39.252 78.435c1.485.273 3.24-.096 4.74-.07 3.869.066 7.752.319 11.614.325.518 0 1.077-.247 1.638-.1l.163-1.44-18.512-.19c-1.023.363-.724 1.275.357 1.475"/></g><defs><clipPath id="a"><path fill="#fff" d="m9.08 0 83.744 9.016-9.079 84.334L0 84.335z"/></clipPath></defs></svg>