<svg xmlns="http://www.w3.org/2000/svg" xmlns:xlink="http://www.w3.org/1999/xlink" fill="none" viewBox="0 0 110 141"><g clip-path="url(#a)"><path fill="#e24b1d" d="m36.14 0 48.32 3.886L110 46.248l-21.807 64.391-36.238 2.092L22.94 141 0 127.716l5.746-51.647-1.612-49.09z"/><path fill="#ebe9dc" d="M46.87 9.64q.048.016.097.038c.264.13.478.907.682 1.16.283.35.65.64 1.04.866 3.453 2.009 7.724 2.348 11.161 4.456.759.465 3.84 3.369 4.357 3.239 1.34-1.429 4.307-3.97 6.053-4.703.732-.307 5.032-1.355 5.88-1.424 3.303-.264 6.838.612 9.966 1.563 1.153 1.112-.728 4.589-.932 6.101-.81 6.04 3.266 13.225 3.658 19.357.074 1.158-1.124 3.084-1.006 4.424 2.364 1.105 4.974 1.614 6.766 3.693.177.205.342.42.507.633l.524.68c.288.374.58.75.802 1.168.52.975 1.08 3.065.264 4.024-.827.97-2.658 1.178-3.689 1.961-6.102 4.622-5.135 16.141-12.221 20.806-2.445 1.61-7.381 2.633-10.142 1.364-5.123 6.379-14.151 6.368-20.965 9.752-.338.168-2.823 1.773-2.89 1.933-.112.266-.57 2.534-.42 2.619 2.9-1.323 5.745-2.946 8.965-3.483 7.787-1.298 16.687 2.633 20.157 9.917 1.967 4.127-4.692 1.976-6.53 1.928-7.79-.2-14.34 4.696-22.195 5.717-2.31.3-3.8-.454-5.825-1.364-.544.139-1.585 3.047-1.958 3.624-3.874 6.006-11.303 14.387-17.632 17.719-2.342 1.234-3.548 2.009-6.086.635-1.35-.732-3.934-3.824-2.897-5.205.57-.758 4.884-3.296 6.17-4.495.72-.67 1.454-1.449 2.007-2.266.647-.961.503-1.035-.344-1.618-1.361-.934-2.176-2.174-3.122-3.505a24.5 24.5 0 0 1-3.375-6.834c-1.51-4.801-1.583-10.066-.082-14.88a29.8 29.8 0 0 1 2.294-5.444 27 27 0 0 1 1.666-2.656c1.134-1.591 1.534-.703 2.289.692 1.377 2.539 2.802 4.928 4.42 7.31 2.767 4.071 6.033 7.453 6.61 12.667.435.321 2.98-4.607 3.294-5.223.897-1.765 1.683-3.598 2.431-5.43.396-.967.955-2.04 1.138-3.073.22-1.246-.802-1.78-1.707-2.557-.736-.63-1.515-1.2-2.229-1.862-1.416-1.313-2.705-2.77-3.77-4.384-1.47-2.228-2.47-4.783-2.773-7.443-.147-1.278.612-3.905-.122-4.97-.283-.41-1-.62-1.381-.944-.786-.671-1.58-1.98-2.217-2.85-.717-.98-1.315-2.044-1.833-3.142C20.692 57.734 20 55.4 19.3 53.081c-1.324-4.388-2.711-9.148-6.427-12.139-1.051-.847-1.867-.673-1.715-2.337.144-1.57 1.443-2.371 2.693-3.171 5.962-3.811 12.675-8.906 20.225-6.784.14-2.835 1.055-6.3 2.229-8.885.857-1.892 3.725-5.463 5.286-6.877 1.072-.972 2.321-1.844 3.563-2.58.414-.246 1.185-.818 1.717-.665zm-.555 2.572c-4.71 2.476-8.154 7.412-9.508 12.546-1.307 4.95-2.138 12.941 1.418 17.218.503-1.383.707-2.95 1.089-4.384.276-1.034 1.026-.461 1.61-.066.839.568 1.682 1.134 2.521 1.7 2.033.751 1.949-5.034 2.26-6.099.565-1.932 3.65-7.007 5.117-8.32.71-.634 3.825-2.802 4.474-1.61.243.447-.045 1.543.206 2.355.798 2.577 3.557 5.233 4.513 7.842.6.533 7.521-1.838 7.861-2.687.16-.504-.028-.96-.162-1.437-1.287-4.615-6.587-10.382-11.035-12.298-3.236-1.393-8.615-1.308-10.364-4.762zm37.806 3.968c-1.949-.093-4.443-.971-6.371-.83-1.25.09-4.699.702-5.936 1.025-.997.26-6.541 4.303-6.393 5.082 2.367 2.315 4.072 5.364 4.596 8.69.323.244 4.403-6.885 5.535-1.205.054.264.3 4.611.283 4.876-.095 1.45-1.07 4.23-1.75 5.556 2.859 3.513 2.183 5.636 7.343 5.516 3.159-.074 4.851-.347 5.17-3.931.4-4.492-3.677-12.875-3.778-18.363-.04-2.06 1.352-4.287 1.3-6.42zM13.975 38.686c-.169.401 2.837 3.473 3.334 4.19 3.456 5.008 3.874 10.746 6.105 16.085.74 1.771 3.239 4.615 4.927 5.638 2.69 1.631 14.047 5.674 11.4-1.376-1.033-2.751-1.328-5.713-1.452-8.63-.074-1.715-.369-3.418-.313-5.138.057-1.77.633-2.778-.161-4.444-1.464-3.075-3.44-5.884-3.944-9.336-.345-2.352 1.084-5.263-2.623-5.385-7.265-.242-11.98 4.287-17.275 8.396zm44.156-.6c1.144-5.053-3.526-8.025-4.944-12.523-4.507 4.089-7.298 10.79-5.25 16.784 2.766-2.669 6.61-3.307 10.194-4.26m9.401 5.648.573-.15c3.301-4.334 6.806-7.855 5.155-13.825-2.361 3.332-6.134 3.458-9.346 4.936-.866.399-5.239 2.91-3.69 4.171 1.663 1.356 6.294 1.637 7.308 4.868m-26.777-3.361c.45 3.774-.452 7.48-.338 11.36.224 7.65 1.837 14.16 7.088 19.975.32.353 3.41 2.569 3.77 2.633 2.838.513 3.217-1.598 3.739-3.774 1.449-6.067 1.204-14.851-1.984-20.27-2.727-4.641-6.674-6.646-11.001-9.54-.445-.297-.56-.758-1.272-.384zm22.042 1.771c-.448-.227-2.926-1.184-3.406-1.304-3.03-.763-7.344.6-9.435 2.885 3.223 1.323 4.08 5.056 6.18 7.54 2.51 2.977 2.956-.01 4.98-1.829 1.49-1.339 3.19-2.447 4.775-3.66.412-1.048-2.192-3.173-3.095-3.632m10.343-1.062c-.734.095-.868.142-1.23.767-2.539 4.375-6.157 5.85-9.617 9.3-.81.809-4.201 4.85-4.508 5.685-.38 1.031.348 7.823.15 9.795-.107 1.065-1.507 6.098-1.42 6.416.02.074.993 1.093 1.065 1.122.225.087 2.398-.572 2.798-.77 4.348-2.16 9.544-8.986 11.587-13.413 2.678-5.798 4.73-13.094 1.175-18.9zm18.964 8.218c-.823-.785-1.767-1.42-2.74-1.817-2.32-.947-5.006-1.102-7.458-.657-1.006.184-4.206.99-4.725 1.71-.186.258-.641 5.055-.975 6.285-.658 2.408-2.287 4.824-2.71 7.085-.618 3.311-.201 6.647-.519 9.744-.095.924-1.408 5.28-1.321 5.568 2.158.55 5.038.16 7.108-.748.47-.207 3.08-2.474 3.483-2.933.608-.695 2.228-4.564 2.715-5.74 1.851-4.483 2.37-8.818 6.284-12.313.845-.754 2.33-1.478 3.439-1.788-.334-1.616-1.31-3.187-2.58-4.398zm-49.473 19.1c-4.521 1.526-8.548 1.352-12.86-.601-1.137 2.958.014 6.558 1.444 9.272 2.32 4.405 6.466 8.003 11.204 9.649 1.185.411 2.42.709 3.672.841 1.406.149 2.634-.554 3.96-1.058a408 408 0 0 1 9.5-3.514c3.212-1.137 5.44-1.027 8.216-3.743 2.066-2.022 3.35-7.408 3.07-10.22-.082-.818-.214-1.721-1.218-1.113-.345.209-.615.518-.879.824-1.43 1.654-2.538 3.198-4.317 4.562s-3.75 2.588-5.952 2.89c-3.276.446-6.975 1.008-9.972-.833-2.514-1.544-4.19-4.622-5.868-6.953zm-12.638 38.235c-.147-1.451-.1-3.777-.571-5.087-2.173-6.021-7.012-9.92-9.597-15.568l-1.796-2.293c-.627 3.225-2.676 6.036-3.225 9.291-.61 3.617.167 10.06 1.819 13.338.647 1.286 1.56 2.472 2.412 3.626.79 1.068 1.58 3.077 3.12 3.003 2.86-.136 2.08-3.706 1.816-5.475-.268-1.796-.858-3.121-1.44-4.787-.235-.674-1.408-4.791-.587-5.019.94-.262 2.255 3.566 2.55 4.252.755 1.759 1.388 3.588 1.695 5.483.336 2.069.6 3.289-.522 5.151-1.006 1.67-2.383 3.082-3.74 4.465l-3.678 3.751c-.835.852-3.507 2.379-3.455 3.514.051 1.135 1.3 2.216 2.37 2.344 2.345.279 4.8-1.862 6.545-3.152 7.896-5.841 16.052-17.362 19.258-26.628 1.227-3.547 2.462-8.599-3.148-7.95-1.767 4.256-3.573 8.582-5.87 12.582-.499.868-3.045 5.688-3.956 5.159m42.739-6.47c-4.356-8.687-14.18-10.351-22.603-6.389-1.449.682-3.742 1.732-3.18 3.615 1.727-1.364 10.095-4.144 11.625-2.9.476 1.094-.781.64-1.334.864-2.88 1.166-6.05 2.15-8.801 3.44-1.695.794-6.3 2.984-6.113 5.058.111 1.231 3.34 1.639 4.334 1.527 7.838-.889 13.98-5.959 22.268-5.837 1.175.016 2.672.275 3.806.626z"/></g><defs><clipPath id="a"><path fill="#fff" d="M0 0h110v141H0z"/></clipPath></defs></svg>