<svg xmlns="http://www.w3.org/2000/svg" xmlns:xlink="http://www.w3.org/1999/xlink" fill="none" viewBox="0 0 160 217"><g clip-path="url(#a)"><path fill="#b8dfdb" d="M92.632 0 28.113 45.625 0 204.658 75.632 217 160 194.804l-9.805-161.318z"/><path fill="#1d8782" d="M131.129 97.945c-.148-.67-2.18-2.3-3.161-2.31-1.86-.013-3.049 2.143-5.02 1.83-.074-9.452.343-18.987-2.299-28.144-10.541-7.85-12.845-.558-14.552 9.097-1.578 8.916-1.268 18.57-2.503 27.455-.306 2.207-1.157 6.081-3.41 7.041-.088-12.273.092-24.569.018-36.851-.023-3.68-1.555-11.816.412-14.96 1.356-2.17 8.25-1.885 6.894-6.728-3.267-2.932-5.205-.208-8.236 1.297-.532-4.71-.606-11.234-2.045-15.685-.38-1.173-2.883-5.2-3.655-5.883-5.992-5.3-15.848 4.447-18.434 9.734-.88-2.087-4.775-1.99-5.9-.864-1.286 1.289 1.86 6.326 4.535 5.43l.028.513c-2.578 6.737-3.915 13.875-5.4 20.93-3.586 17.034-4.974 34.585-8.384 51.6-1.397 6.968-4.9 10.039-5.418.993-.342-6.026 3.267-16.678 3.706-23.595.218-3.412.731-11.442-1.855-13.63-.796-.675-4.049-1.986-5.007-1.958-3.66.097-7.329 9.89-8.407 13.076-1.393 4.128-2.656 9.567-2.97 13.852l-5.02-3.472c-1.037.069-3.517 3.482-1.671 4.359l4.905 5.961c-1.023 9.734-2.938 20.718 2.938 29.261l15.171 9.904c-1.068 2.636.87 15.357-.957 16.563-1.87-.157-3.984.798-5.64.734-4.142-.162-9.5-4.308-9.722 3.006 8.51 3.546 17.49-.291 25.92.946 4.387.647 7.575 4.941 11.18 6.104 7.666 2.485 16.591-.738 24.314.278 3.262.429 6.561 2.752 9.383 3.403 1.189.272 2.573-.712 3.873.18l.051-3.981c-.287-1.888-16.528-5.716-19.16-4.201 1.018-6.603 2.068-13.206 1.906-19.906l8.102-3.731-.611-1.792-1.74-1.893-5.839 1.875c2.129-4.063-.819-14.259 2.748-16.789 2.291-1.625 9.315-2.877 12.313-4.063 1.032-.411 4.465-1.93 5.015-2.484 4.683-4.729 5.382-12.481 5.446-18.853.033-2.918.431-6.04-.944-8.681 1.768-.272 9.629-2.632 9.106-4.982zM117.322 122.3c-.167.545-3.447 4.692-4.03 5.066-2.901 1.865-10.624 3.098-14.284 4.825-.509.24-3.812 2.47-4.08 2.757-.422.452-1.972 8.242-2.05 9.299-.727 9.641.088 19.365-.977 29.011-.115 1.03-.832 4.451-1.254 5.112-.81 1.27-10.9 1.242-12.627.715-1.526-.461-4.696-4.086-6.746-5.079-3.234-1.565-6.921-1.343-10.179-2.114-1.143-5.033 1.62-14.781-.569-18.964-1.416-2.715-5.002-2.937-7.417-4.405-5.437-3.297-10.355-6.534-11.156-13.442-.985-8.477 2.235-24.777 4.752-33.273 1.38-4.659 3.947-8.791 4.303-13.422 3.35-.204 2.915 3.495 2.772 5.947-.306 5.324-1.286 11.714-1.943 17.14-.662 5.448-2.781 9.068-1.338 15.122 1.569 6.584 9.481 9.562 12.225 2.101 4.164-13.899 4.511-28.795 7.408-43.044 2.84-.766 4.96 2.97 6.986 3.49 4.04 1.044 2.689-3.273.82-5.365-2.523-2.82-7.44-1.731-5.979-8.112 1.138-1.326 6.473 7.032 8.102 2.179 1.221-3.63-4.04-5.02-6.325-7.305 1.101-10.213 2.961-19.845 9.032-28.18.583-.803.606-2.05 1.267-2.803 1.254-1.417 4.304-2.6 6.154-1.625 2.564 1.353 4.146 12.2 4.42 15.496 1.147 13.926.138 28.711.568 42.679.158 5.102-.074 11.613.426 16.382.541 5.177 4.497 8.136 8.629 4.008 5.673-5.67 4.155-16.728 5.044-24.043.823-6.8 2.096-13.676 3.183-20.445 3.202-2.808 4.608 1.334 4.965 4.174 1.429 11.432.68 23.936.051 35.36-.172 3.075.633 8.21-.144 10.758z"/><path fill="#1d8782" d="M86.058 102.899c-.824.092-7.718 5.471-8.232 6.376l.51 2.715c1.35 1.247 7.425-2.336 8.675-3.583 2.114-2.114 3.239-5.979-.953-5.508M66.652 142.429c.676 3.338 2.263 1.805 4.4 2.706 1.463.614 5.96 3.495 7.26 2.295.102-.093.704-2.364.505-2.715-1.583-2.798-10.277-7.042-12.165-2.286M84.865 112.217c-.232.157-.162 1.02-.472 1.256-1.425 1.08-6.057 3.698-4.743 5.813 3.447 5.555 11.405-5.587 9.601-7.277-1.282.176-3.42-.448-4.386.208"/></g><defs><clipPath id="a"><path fill="#fff" d="M0 0h160v217H0z"/></clipPath></defs></svg>