<svg xmlns="http://www.w3.org/2000/svg" xmlns:xlink="http://www.w3.org/1999/xlink" fill="none" viewBox="0 0 113 120"><g clip-path="url(#a)"><path fill="#ebe9dc" d="m43.178 15.607-22.263 25.89 2.093 30.64 13.449 30.123 37.801 11.037 23.264-55.748-.357-27.9-28.336-16.166z"/><path fill="#d55c0c" d="M87.616 40.436c3.032 6.713 2.279 13.355-.121 20.205-.821 2.341-2.538 5.224-3.187 7.663-.608 2.276-.451 4.99-1.342 7.236-1.106 2.793-2.907 3.744-5.596 4.751-.042 1.45.499 2.422-.432 3.753-1.992 2.85-4.313 2.756-5.898-.353-.712.56-.914.376-1.502.409-.29.016.486 4.38.268 4.907.933.476 2.163 1.236 2.037 2.43-.249 2.38-2.218 6.94-3.557 8.975-2.344 3.563-5.283 2.442-8.598 1.26-.642-.229-1.09-.782-1.63-.97-1.838-.645-4.265-.965-6.056-1.776-1.752-.793-5.451-3.456-6.154-5.269-2.368-6.111-1.813-12.995-3.864-19.241-2.695-8.21-9.252-16.263-8.014-25.585 1.89-14.233 10.132-24.61 24.999-25.371 7.136-.366 12.308 1.158 18.286 5.12 5.3 3.515 7.73 6.03 10.359 11.853zm-1.627.31c-2.886-6.276-8.065-10.172-14.102-13.338-9.773-5.126-25.335-1.71-31.47 7.703-2.803 4.302-5.795 14.548-4.464 19.572.252.947.625 1.987 1.847 1.857.742-1.944.992-4.01 1.465-6.027.407-1.74.86-1.877.745-4.021-.059-1.087-.836-1.152.311-2.23.804-.756.97.553 1.136 1.227.884 3.597-.717 5.538-1.373 9.008-.274 1.448-.697 4.175-.282 5.554.17.568.658.786.879 1.262 1.434 3.084 2.541 4.49 5.143 6.757 1.299 1.13 2.852 1.925 4.622 1.823.67-.038.969-.537 1.515-.701 2.044-.616 4.324.655 5.333 2.437 1.369 2.42-.142 4.517.696 7.048l.371.345c.623.123 1.764.39 2.273-.004.582-.45 1.93-4.019 2.676-1.69.316.982-.489 2.823.875 3.698 2.075 1.33 2.49-3.246 2.89-3.339.376-.086 1.35.248 1.385.862.058 1.01-.78 2.948.303 3.682 2.206 1.496 2.831-1.771 2.963-3.425 3.649.381.814 2.852 1.149 4.499.385 1.902 2.39.866 2.83-.72.37-1.338-.542-3.497-.145-4.735.492-1.534 2.275-2.943 2.76-4.612l.99-.44c.873 1.763-.975 3.577-1.889 5.041.458 1.372 3.252-1.534 3.639-2.185 1.457-2.458.817-6.789 1.726-8.843 1.376-3.114 3.4-6.68 4.28-10.047 1.342-5.13 1.14-11.21-1.071-16.02zM62.374 87.31c-.159-2.14-.238-4.284-.856-6.367-3.45.71-5.652-.648-5.68-4.3-.012-1.633 1.053-2.374-.146-4.209-1.569-2.4-3.437-1.885-5.121-.009.219 1.265-.391 2.696-.346 3.861.083 2.125 1.422 6.704 1.867 9.198.125.703-.387 1.16.383 1.867 1.572-1.926 3.143-2.765 5.379-1.107.398.296.541.931.648.985.181.09 3.06-1.21 3.87.084zM48.407 72.57c-.212-.544.274-.946-.735-1.34-.666-.261-3.871-1.178-4.115-.376.375 3.512 1.205 6.964 1.748 10.444.422 2.712.427 5.377 1.121 8.145.214.854.776 3.244 1.112 3.882 1.303 2.48 6.532 4.353 9.099 5.332 1.4.535 2.658 1.06 4.06 1.608.962.374 3.884 1.114 4.735.613 2.357-1.387 3.845-6.918 4.636-9.457-1.645-.994-2.354 1.042-2.99 2.232-.391-.082-1.57.015-1.57-.56.004-1.257 1.466-2.592-.086-3.185-1.811-.692-2.761 1.455-3.44 2.807l-1.61-1.202c-.095-.607 1.473-1.962.812-2.902-2.18-.556-2.618 1.524-4.24 2.22l-1.108-.759 1.138-2.402c-1.754-1.366-3.083.196-3.894 1.8-1.21-.291-2.308-.23-2.475-1.73-.127-3.929-2.096-8.248-2.038-12.092.024-1.612.551-1.252-.164-3.082z"/><path fill="#d55c0c" d="M67.748 47.563c.754 1.608.702 3.36.25 5.063-.477 1.792-1.922 4.95-3.297 6.252-3.028 2.87-6.69 3.786-10.597 2.066-3.223-1.418-3.187-7.01-2.12-9.811 1.282-3.363 3.248-5.668 6.594-7.057 3.6-1.495 7.5-.078 9.173 3.489zm-14.594 9.814c.053.183.834 1.382.995 1.542.808.803 4.313 1.434 5.424 1.088 3.807-1.187 6.342-4.809 7.058-8.675.81-4.373-4.459-7.667-8.176-5.436-1.147.689-2.96 2.116-3.643 3.25-1.258 2.087-2.346 5.843-1.656 8.23zM83.453 52.163c.04.093.418 1.884.42 1.985.129 4.01-2.575 8.356-5.473 10.951-2.084 1.864-4.286 2.068-6.589.25-1.371-1.084-1.184-5.351-.871-6.977.837-4.359 3.056-9.546 8.325-8.899 1.26.154 3.715 1.587 4.187 2.69zM72.57 63.454c.455 1.11 2.3 1.68 3.424 1.219.814-.336 3.614-3.188 4.136-4.005 1.032-1.613 2.668-6.042 1.546-7.765s-3.972-2.333-5.61-1.078c-1.183.908-2.182 2.333-2.732 3.715-.582 1.467-1.332 6.527-.764 7.914M70.249 65.515c.268.513.407 3.555.338 4.273s-.24 2.173-.668 2.658c-.535.605-4.47 1.094-5.198.648-3.685-2.26-.618-5.545 1.8-7.513 1.202-.978 2.792-1.857 3.729-.064zM68.994 66.7c-.567-.933-1.544.181-2.085.73-.501.509-2.879 2.995-1.995 3.615.422.56 3.142.565 3.387.262.374-.462.836-4.371.693-4.607"/></g><defs><clipPath id="a"><path fill="#fff" d="m41.073 0 71.378 34.674-41.072 84.55L0 84.55z"/></clipPath></defs></svg>