<svg xmlns="http://www.w3.org/2000/svg" xmlns:xlink="http://www.w3.org/1999/xlink" fill="none" viewBox="0 0 117 117"><g clip-path="url(#a)"><path fill="#1d8782" d="m9.225 38.146-1.51 39.907L34.87 97.832l47.39-7.828 28.854-30.814-13.005-36.578-31.363 3.938-19.955-4.436z"/><path fill="#ebe9dc" d="M49.82 32.545c.342.16 1.44.858 1.81 1.19 1.13 1.017 2.496 2.83 2.832 4.308.61 2.689.566 5.652.031 8.311-.647 3.215-2.248 6.545-4.678 8.701-.925.82-2.867 1.833-4.07 1.973-.857.1-2.48-.049-2.056-1.179.25-.667.815-.75 1.152-1.206 1.117-1.507 1.882-4.03 2.11-5.887-2.526-.305-4.879.527-7.32-.404-.844-.32-1.658-1.11-2.497-1.506l-3.01-2.808c-.461.807-1.389 1.389-1.933 2.005-1.962 2.226-2.1 2.967-4.948 4.578-.517.292-1.089.437-1.637.643-.137.606-.46 1.159-.638 1.749-.293.976-.597 3.768-1 4.4-.112.176-.558.261-.761.562-.467.69-.736 1.533-1.229 2.215 1.657 2.577 3.755 4.738 4.727 7.74 2.234-.652 4.822-.737 7.023-1.389 2.302-.68 5.905-3.384 8.029-4.814.502-.338.782-.988 1.46-1.2 1.434-.45 3.196 1.235 3.792 1.047 1.151-.877 2.546-3.622 3.831-4.043 1.624-.531 2.465-.473 3.897.354.562.323.913 1.012 1.548.859a.96.96 0 0 1 .246-.727c.399-.442 2.385-2.244 2.826-2.474 1.567-.816 2.984.422 3.946-.178 1.51-.938.383-2.88.22-4.109-.386-2.93-.66-8.257.384-10.97 1.141-2.961 4.92-5.58 7.687-6.984 6.872-3.49 16.385-4.146 21.676 2.358.789.969 1.073 2.702-.293 3.23-.181.069-.116-.361-.263-.464-.28-.197-2.798-1.063-3.21-1.126-.508-.075-1.206.286-1.776.003.763 1.014 3.151 5.222.633 5.2-2.4-.022-1.433.146-3.223 1.088-4.625 2.434-6.95 2.47-11.478-.251-1.04-.626-2.79-2.761-4.063-1.821-.07.052-1.116 1.272-1.152 1.352-.473 1.04-.452 6.708.112 7.51.304.432.393.097.658.006 1.443-.5 2.658-2.05 4.315-1.288.022.558.343 1.211.331 1.719-.023 1.008-1.005 1.955-1.021 2.577-.022.793.789 1.637 1.02 2.356 1.337-1.157 3.46-2.093 4.833-.58-.29 1.266-.918 2.402-1.424 3.584-.212.495.07 1.16-.689 1.163.891 1.396.99 3.234.708 4.852a23.2 23.2 0 0 0 5.89 1.48c1.23.139 2.07.288 3.264-.21-1.418-1.245-3.107-1.998-3.758-3.956-.093-.278-.236-2.38-.203-2.71.184-1.815 1.876-4.114 1.93-5.93.028-.9-.835-1.97-.934-2.764-.05-.396.108-.946.055-1.473-.063-.618-.581-2.062-.061-2.5 1.233-1.036 5.86.518 7.364 1.134 1.278-.387-.865-6.723 2.959-4.483 6.492 3.801 3.626 16.082 1.29 21.742-.662 1.606-1.516 3.439-3.088 4.36-.441.26-3.126 1.233-3.583 1.29-.376.048-.747-.14-1.122-.11-3.97.327-7.499-.105-11.348-1.048 1.051.93 2.14 1.437 2.45 2.966.215 1.065-.526 4.817-1.087 5.768-.056.094-1.444 1.433-1.545 1.471-.521.199-1.034-.047-1.535-.157-.348-1.518.141-3.187-.21-4.7-.04-.167-.726-1.766-.834-1.885-.49-.534-1.377-.703-1.87-1.303-.524.49-.312.37-.126.783.376.837 1.217 1.423 1.545 2.284.195.514.204 3.027.133 3.605-.142 1.16-2.08 2.594-2.945 3.387-.179.164-.16.466-.234.517-.189.133-1.842.597-1.92.535-.938-1.44.097-2.247.42-3.528.194-.773.063-1.722.398-2.53l-1.756-2.909-.905.798c.936 1.642.903 3.723.449 5.536-.234.929-1.227 2.57-1.968 3.184-.796.66-4.615 2.48-5.471 2.134-1.736-.703.097-2.23.615-2.984.744-1.085 2.458-3.333 2.23-4.55l-.944-2.43-7.744 2.773c-.073 2.193-.31 4.17-1.339 6.13-1.05.806-1.826 1.768-3.014 2.44-.711.402-3.613 1.738-4.266 1.773-.647.035-1.47-.447-1.392-1.146.067-.598 1.187-1.196 1.488-1.573.177-.222.225-.573.44-.831.663-.799 3.46-3.502 3.153-4.38-.14-.403-1.242-2.066-1.647-2.073-1.254.359-3.128.046-4.433-.285-.868-.22-3.102-1.436-3.634-1.46-1.5-.064-3.01 1.01-5.22.483-2.369-.565-1.651-.098-3.783.29-1.682.304-3.906.015-5.325-.963-.239-.165-1.779-1.697-1.904-1.894-.474-.745-.72-2.262-1.275-2.963-.589-.743-2.595-1.19-3.571-2.148-1.303-1.275-2.417-4.21-2.352-6.005.04-1.083.723-2.79.705-3.687-.03-1.438-1.067-3.51-1.084-5.007-.005-.4.16-1.722.254-2.123.063-.275.424-.228.538-.448.15-.287.15-.675.357-.993 1.045-1.6 3.999-2.912 4.606-3.927.351-.586.373-1.921.832-2.794 2.146-4.07 7.653-3.238 10.633-5.802.146-.125 1.143-1.31 1.215-1.452 1.148-2.23-.396-4.102 3.005-5.27 4.108-1.408 9.775-1.557 13.74.296zM49.31 53.42c3.418-3.22 5.142-11.338 3.312-15.747-1.845-4.447-6.562-4.82-10.79-5.03l-6.365 1.375c-.466 1.916-.25 3.415-1.642 4.937-2.546 2.782-4.19 2.617-7.346 3.777-3.258 1.196-4.323 3.159-4.971 6.441-2.353.96-5.155 2.879-5.273 5.647-.076 1.777.865 3.265 1.015 4.858.114 1.225-.58 2.342-.598 3.552-.021 1.586.716 4.621 1.977 5.663.572.472 3.073 1.419 3.288 1.685.17.21.103.76.285 1.092.25.457.675.754.912 1.162.502.864.524 1.61 1.481 2.398 1.058.87 2.897 1.125 4.224 1.039.623-.04 1.816-.977 2.77-1.062.8-.07 1.42.47 2.167.633 1.738.38 3.46-.515 5.153-.377.59.048 2.234.978 3.017 1.208 2.206.645 3.263.302 5.296.412 1.67.09 1.167.93 1.629 1.9.209.442.663.846.803 1.294.517 1.661-1.567 3.787-2.641 4.933-.29.31-.79.357-.587.984 2.74-.69 4.516-2.683 4.865-5.46.127-1.003-.217-2.592.506-3.33.4-.407 2.406-1.203 3.073-1.452 1.315-.489 4.029-1.495 5.281-1.755 2.556-.53 2.945 2.979 3.35 4.817l-2.704 4.46c3.361-.926 5.226-4.105 3.964-7.442-.189-.498-.596-.743-.788-1.164-.527-1.157 2.191-2.649 3.26-2.43.948.192 2.851 3.45 2.918 4.49l-.45 3.14c1.445-1.223 2.124-3.372 1.397-5.184-.463-1.154-3.404-2.258-1.69-4.06.956-1.003 3.338-.263 4.264.512 1.543 1.294 1.755 3.34 1.997 5.148.064.478.347.794.616.38.024-1.303 1.189-3.849.183-4.86-1.136-.603-2.075-1.546-2.969-2.404-.118-.115-.42-.045-.453-.087s.192-1.034.226-1.089c.75-1.263 5.337.25 6.63.45 2.329.357 6.409.634 8.678.17 1.682-.342 3.19-1.26 4.148-2.699.81-1.22 2.948-7.183 3.145-8.644.285-2.106.709-6.732.127-8.65-.267-.879-1.947-3.719-2.782-4.05-.597-.237-.37.477-.359.767.035.93-.11 3.939-.997 4.28-1.113.426-1.547-.778-2.452-1.148-.491-.2-4.118-1.067-4.25-.858-.026.869-.234 1.59-.085 2.494.126.76.597 1.307.75 1.992.5 2.232-.71 3.438-1.332 5.296-.15.445-.625 2.377-.595 2.74.124 1.47 1.41 2.624 2.514 3.433.73.536 2.157 1 2.508 1.81.515 1.184.184 1.773-1.062 2.112-.34.092-4.196-.08-4.893-.136-1.166-.096-4.74-.689-5.69-1.225-.215-.122-1.472-1.174-1.567-1.33-.75-1.209.277-2.09.19-3.084-.074-.84-.916-1.378-.818-2.26l1.724-3.807c-1.223.022-1.917 1.382-3.212 1.11-.383-.08-2.049-1.73-2.276-2.094-.74-1.185.218-2.627.697-3.708.097-.221.572-.53.076-.742-2.044 1.077-4.053 2.205-5.771 3.762-.548.496-.858 1.38-1.798 1.739-.009.692 1.122 1.637 1.548 2.318 1.466 2.347 2.629 4.88 3.138 7.625-1.34.444-1.698-.742-2.124-1.788-.762-1.879-.945-2.97-2.192-4.75-.535-.765-1.46-2.114-2.302-2.381-2.82-.896-3.934.855-5.538 2.823.773.97.773 2.238 1.115 3.385.143.474.515.825.626 1.198.245.817.076 1.75.569 2.544l-.1.43c-.364.69-1.403.215-1.61-.36-.165-.454.107-.881-.001-1.282-.151-.555-1.749-5.136-1.923-5.363-.19-.246-.686-.279-.94-.49-.472-.4-.609-.993-1.41-1.18-2.27-.527-2.891 1.086-4.004 2.533-.137.178-.475.242-.61.423-1.531 2.054-.476 1.933-.075 3.58s.168 3.972.762 5.737c-.07.652-1.391.827-1.662.14-.118-.298-.418-1.817-.484-2.258-.042-.275.16-.63.115-.902-.258-1.572-.57-3.36-1.305-4.77-.362-.695-1.434-.954-2.087-1.37-1.109.797-2.279 1.513-3.42 2.269-1.347.89-4.223 3.157-5.631 3.604-1.282.406-6.999 1.63-8.247 1.635-.295 0-1.227-.128-1.391-.33l-.52-2.2-4.623-6.672c-.037-.476 2.245-3.624 2.587-4.545.378-1.02.38-2.137.689-3.182 1.044-3.531 2.987-2.821 5.364-4.852 1.127-.963 2.47-3.237 3.48-4.116.198-.171 2.36-1.376 2.507-1.39 1.871 2.335 4.787 5.34 8.06 5.175.527-.027 1-.263 1.439-.295 1.443-.104 2.724.018 4.19-.51.594 2.793-.861 5.775-1.899 8.341.398.28 2.322-1.141 2.7-1.497zm42.11-17.322c-.829-.756-2.071-2.148-3.043-2.614-.945-.453-4.801-1.24-5.91-1.28-5.587-.2-13.436 3.046-16.525 7.78-.07.107-.358.128-.455.328-.09.188-.542 1.701-.559 1.876-.032.36.232.664.23 1.01-.01 1.335-.499 3.404-.434 5.03.014.36.468 3.474.609 3.591.54.107 1.855-.682 1.844-1.17-.429-2.25-1.124-5.73-.374-7.939.14-.413 2.311-3.07 2.619-3.19 1.445-.56 4.202 1.915 5.49 2.645.68.386 2.816 1.518 3.438 1.667 1.823.436 5.45-1.117 6.931-2.228.204-.153.082-.524.337-.613.595-.208 1.483-.272 2.126-.189.091-.106-1.022-2.228-1.252-2.509-.502-.614-1.796-.989-1.986-1.477-.625-1.616 2.44-.989 3.236-.972.574.012 1.161-.183 1.738-.152.666.038 1.219.604 1.944.404z"/></g><defs><clipPath id="a"><path fill="#fff" d="m3.154 25.932 104.252-9.122 6.484 74.108-104.252 9.121z"/></clipPath></defs></svg>