<svg xmlns="http://www.w3.org/2000/svg" xmlns:xlink="http://www.w3.org/1999/xlink" fill="none" viewBox="0 0 181 181"><g clip-path="url(#a)"><path fill="#3f9a95" d="m88.372 64.457 8.491-30.49L76.124 23.52l-9.285 20.776-21.832 21.859 7.025 23.235-25.607 36.024 14.78 19.711 40.562-10.296 23.544-22.01 30.282-7.012 5.092-21.68 12.272-17.36-13.665-6.979-32.539 12.918z"/><path fill="#ebe9dc" d="M141.342 69.698c-.093-.838-2.129-1.025-2.812-.876-1.953.423-6.81 2.072-8.378 3.14-2.238 1.521-3.999 3.617-5.418 5.788-1.824 2.79-3.627 6.535-6.494 8.376-1.083.695-4.998 2.245-6.153 1.773-3.816-1.558-6.834-4.486-10.592-6.284-3.907-1.871-8.118-2.923-12.044-4.546-1.658-.686-3.528-1.98-5.238-2.523-2.01-.636-3.843-.888-5.881-2.059-.746-.429-2.652-2.009-3.18-2.661-1.243-1.541-1.236-3.003-1.52-4.758-.071-.453-.537-.75-.487-1.148.588-4.716 5.463-6.9 7.894-10.394 2.73-3.925 3.853-6.632 4.284-11.286.143-1.552-.086-3.063.233-4.567-1.516-1.69-3.921 1.78-4.939 3.07-2.608 3.311-4.872 6.161-8.024 9.105-3.735 3.49-9.134 6.455-11.426 11.186-2.056 4.244-2.435 10.272-.11 14.411.565 1.004 2.8 3.15 2.566 4.008-.95 2.114-2.416 4.342-3.335 6.408-2.843 6.389-3.42 14.882-8.758 19.697-2.99 2.695-5.987 3.611-7.526 7.679-.211.557-.143 1.341-.425 1.801-.314.513-2.513 1.457-3.304 2.383-1.182 1.379-3.452 5.548-3.56 7.34-.03.515.345 1.091.387 1.612.042.523-.223 1.02-.16 1.502.072.555 1.178 2.922 1.528 3.529 2.174 3.785 5.939 5.112 9.944 3.43 1.24-.521 3.467-1.732 4.5-2.555.974-.776 3.336-3.826 3.868-4.058.749-.326 3.783-.181 4.892-.513 5.36-1.606 10.3-6.852 14.236-10.648 1.87-1.802 3.026-3.741 5.756-4.646 4.607.027 9.468 1.044 13.582-1.548 2.121-1.337 4.535-3.433 5.989-5.444.551-.763.941-1.668 1.478-2.443.783.432 1.483 1.073 2.384 1.279 1.253.286 5.02.403 6.417.318 4.733-.289 9.949-2.821 12.753-6.707 5.595-7.748 7.439-17.156 13.49-24.713.832-1.04 3.733-2.124 3.585-3.461zm-78.04 5.935c-3.952-6.381-2.117-13.26 3.064-18.316 4.842-4.726 10.539-8.284 14.905-13.891.677-.87 1.097-1.992 1.75-2.821.196-.249.413.076.657.204-.444 2.952-.536 5.66-1.952 8.4-2.472 4.788-7.532 7.419-9.71 12.116a7.8 7.8 0 0 0-.498 1.583c-.147.843.265 3.567.466 4.52.169.795.963 2.148.816 2.704-.092.35-1.21 2.191-1.492 2.485-.435.453-1.312.77-1.885 1.266-1.292 1.121-2.493 2.522-3.753 3.61-.279.243-.435.452-.86.453-.179-1.011-1.063-1.598-1.506-2.312zm-18.569 46.339c.047.11-.09.348-.028.477.854 1.783 3.301 3.55 5.055 4.387-2.295 2.09-6.491 3.328-7.786-.424-.75-2.175 1.398-3.712 2.047-5.617.347-.092.602.909.714 1.177zm3.043 11.264c-.427.176-.747.029-1.063.108-.258.064-.498.34-.755.365-1.406.144-4.23-.823-5.133-1.898-.23-.273-1.49-2.597-1.658-3.008-.396-.977-.242-1.828-.276-2.813-.009-.27-.344-.431-.31-.745.245-2.239 2.477-6.934 4.601-7.9.738-.335.598.508.488 1.077-.098.503-2.629 3.772-3.142 4.93-.847 1.912-.668 3.792.584 5.464.853 1.138 3.12 1.834 4.52 1.788.294-.009.451-.349.739-.354.35-.008.772.284 1.1.21.3-.067 4.913-3.051 5.164-3.321.38-.405 1.718-2.114 1.947-2.559.808-1.565.159-3.745 1.914-4.619 1.274-.632 1.144 1.168 1.048 1.934-.562 4.525-5.569 9.603-9.772 11.343zm12.781-8.156c-.573 1.223-1.463 1.355-2.665 1.603l1.543-3.543c-.143-.678.505-1.846.495-2.192-.003-.105-.876-1.654-1.043-1.819-1.506-1.489-3.344-1.374-4.725.155-1.063 1.177-.084 2.704-.472 3.523-.325.686-1.721 1.797-2.039 2.783-.874.382-4.715-2.777-5.154-3.694-.255-.533-.001-.983-.107-1.314-.213-.664-.915-1.825-1.034-2.43-.199-1.005.183-5.421 1.116-5.836 2.248.427 5.27 1.845 7.45 2.065 2.618.264 4.244-1.938 6.165.799.654.932.45 1.422.681 2.147.155.484.465.843.581 1.446.295 1.543-.13 4.895-.792 6.306zm39.597-21.099c-1.419 1.781-3.155 3.239-4.944 4.62-.733.565-.56.286-.918.512-1.637 1.033-2.138 1.381-4.185 1.676-.912.131-3.155.216-4.11.139-1.507-.12-3.556-.954-4.953-.318-5.604 2.553-9.509 9.23-14.7 12.733-.704.476-2.73 1.783-3.44 1.889-1.156.175-.192-.839-.09-1.451.554-3.351.737-5.17-.62-8.382-.265-.626-1.226-1.661-1.245-2.136-.085-2.126 6.965-8.385 8.811-9.947 2.814-2.382 6.498-5.326 9.718-7.159 2.509-1.428 5.365-2.262 7.998-3.207.874-.314 4.666-1.152 3.465-2.584-.955-1.138-1.111-.172-1.86.147-3.844 1.633-7.636 2.403-11.324 4.585-4.265 2.524-9.992 7.218-13.472 10.761-1.973 2.008-3.573 3.869-4.902 6.399-1.326-.788-1.68-.066-2.537.071-.923.147-1.79-.184-2.651.328l-6.397-1.923c4.026-2.497 6.976-6.192 10.228-9.562.369-.382 1.22-.791 1.844-1.441 3.1-3.219 6.635-9.85 7.778-14.183.396-1.5 1.174-4.512-.469-5.37-1.21.804-.655 1.928-.847 3.008-.654 3.705-3.663 10.404-6.037 13.29-.474.577-1.303 1.632-2.073.996l3.34-9.956c1.23-1.94 1.985-4.394 3.039-6.36.557-1.04 4.986-5.132 6.114-5.978.577-.432 3.727-2.255 4.295-2.39.888-.211 2.413 1.162 3.34 1.63.83.42 2.212 1.132 3.012 1.418 5.483 1.963 11.587 4.09 16.927 6.445 2.921 1.288 5.875 2.622 8.314 4.643-.724 1.689-2.49 2.477-3.553 3.905-2.337 3.137-4.282 7.753-1.127 10.891-.974.461-1.169 1.512-1.766 2.264zm35.192-30.714c-5.136 6.607-7.117 15.406-11.642 22.317-3.619 5.528-10.346 8.292-16.816 7.009-.298-.059-2.526-.741-2.662-.838-1.049-.74-2.373-3.29-2.198-4.577.154-1.128 1.157-2.95 1.876-3.838.399-.494 2.464-2.063 2.996-2.218.272-.078.723.105 1.091.003 5.606-1.536 10.696-1.823 14.683-6.812 3.048-3.815 4.806-8.886 9.406-11.433.785-.435 1.67-.462 2.318-.697.951-.344 1.856-1.227 2.988-1.04-.491.873-1.443 1.353-2.041 2.122z"/><path fill="#ebe9dc" d="M87.03 97.148c-4.912.186-9.002 2.002-12.557 5.504-1.216 1.197-2.772 2.658-.924 4.143.555.446 2.05.856 2.73.78.164-.019 2.687-.898 3.036-1.049 2.298-.99 5.493-3.35 7.294-5.095.64-.621 3.317-3.323 3.01-4.038-.425-.986-1.944-.269-2.588-.245m-11.08 8.567-1.231-.553 2.314-2.511c.42.959.706 1.794 1.764 2.251l-2.847.815zm7.29-3.603c-.032.015-.525-.1-.445-.531.176-.951-.586-.939-.947-1.689 1.454-.521 2.92-1.274 4.515-.98z"/></g><defs><clipPath id="a"><path fill="#fff" d="m48.504 17.852 109.864 22.55-25.363 123.567-109.864-22.55z"/></clipPath></defs></svg>