<svg xmlns="http://www.w3.org/2000/svg" xmlns:xlink="http://www.w3.org/1999/xlink" fill="none" viewBox="0 0 167 114"><g clip-path="url(#a)"><path fill="#1d8782" d="m46.409 14.99 108.765 21.897.69 43.636-5.998 21.982-77.719-9.557L0 73.26l16.28-32.027z"/><path fill="#ebe9dc" d="M143.234 87.253c-.197-1.019-.329-1.436-1.237-1.985-.518-.312-1.542-.414-1.553-1.07l6.652-36.08c-.27-1.237-4.158-2.015-5.41-2.322-1.075-.263-2.216-.31-3.25-.55-28.534-6.633-56.935-12.923-85.573-19.167-.605.208-2.09.15-2.533.49-.21.162-.323.598-.61.847-2.51 2.189-4.745 4.663-6.987 7.053-3.102 3.305-6.027 6.776-9.204 10.011-2.768 1.115-5.785 1.248-8.66 1.971-1.103.278-2.13-.12-2.707 1.313-.277 1.7-.688 3.52-1.461 5.044l-.524 4.06c-1.11-.69-2.002-.9-2.933.214-.763.914-.395 1.39-.608 2.144-.398 1.406-1.836 4.553-.53 5.723.609.546 1.067.172 1.625.317 1.756.457 3.782 1.356 5.741 1.85 1.373.346 2.763.106 3.997 1.073.46 7.194 7.986 11.414 14.38 7.98 1.255-.674 2.546-2.31 3.427-3.438l52.21 8.965c-.657 1.04.117 1.171.196 1.522.131.58.028 1.224.263 2.01 2.381 7.975 13.234 9.468 17.376 2.21.473-.829.705-1.573.898-2.496 1.215.273 2.407.74 3.629.997 6.783 1.423 14.166 3 20.973 4.166.502.086 2.438.316 2.659-.065.087-.15-.177-2.417-.249-2.786zm-3.172-9.198c.072.273-.627 2.788-.738 3.359-.184.942-.024 2.134-.594 3.099-1.421.198-2.751-.472-4.116-.777.712-1.108.154-2.257.263-3.208.112-.971.637-2.045.823-3.029.871.32 1.754.067 2.638.123.372.024 1.63.087 1.723.434zM45.447 34.079l.952-.259c-.572 2.262-1.286 4.521-1.825 6.781-.15.633-.017 1.309-.283 2.15-.32 1.015-1.14 2.874-2.387 2.707l-6.229-.864 9.771-10.513zM32.724 74.533c-7.124-4.672-2.552-14.242 5.716-12.908 3.159.51 6.329 4.13 6.12 7.37-.378 5.808-7.16 8.604-11.836 5.538m65.483 5.43c-.935.415-4.634-.7-5.769-.893-13.898-2.355-27.792-4.734-41.677-7.002-1.579-.258-3.242-.995-4.944-.73l.022-1.24 53.018 8.861c.076.13-.492.932-.65 1.003zm13.442 9.179c-2.555 1.793-6.244 1.855-8.835.157-7.124-4.672-2.552-14.242 5.716-12.908 2.473.4 5.757 3.406 6.055 5.94.314 2.681-.738 5.268-2.936 6.81m2.582-11.25c-2.506-2.844-6.805-3.86-10.378-2.823-1.814.527-3.148 2.572-5.048 2.298-2.643-.38-5.347-1.1-7.973-1.538-14.018-2.334-28.013-4.545-41.976-7.096-.896-.163-1.914.038-2.802-.468.124-.558.091-1-.078-1.546-1.975-6.319-9.405-8.875-14.826-4.996-1.587 1.137-2.894 2.772-3.302 4.712l-2.86-.567c-1.421-.942-3.411-.758-4.9-1.218-.887-.274-1.839-1.113-2.956-1.149.098-1.94 1.165-3.58 1.492-5.503l3.19.87.21-3.055c.778.898 3.051-.324 3.411-1.093 1.07-2.281.779-4.715-2.042-5.071l.423-1.406c1.37-.158 2.673-.62 4.028-.87 1.278-.237 2.687-.263 4.077-.572.717-.159 1.423-.651 2.024-.739.873-.124 4.041.275 5.133.42 1.597.212 2.65 1.096 4.375.377 1.042-.436 1.675-1.806 2.046-2.842 1.363-3.81 1.728-10.466 3.456-13.645.262-.483 2.007-2.252 2.499-2.482 1.691-.793 9.353 1.554 11.447 2.018 22.6 5.005 45.192 10.14 67.766 15.222 4.888 1.101 9.806 1.976 14.646 3.264l.279.33-5.217 27.532c-1.915.176-4.685-1.322-6.055.317-.454.544-.687 1.807-.83 2.584-.269 1.474-.111 3-.399 4.472-2.37-.66-4.836-.897-7.252-1.357-1.082-.206-2.122-.661-3.2-.876-1.971-.395-5.071-.404-6.821-1.231-.915-.432-1.148-1.777-1.583-2.27zM22.128 54.286l.847-2.587 1.37.101c.23 1.531-.473 3.265-2.215 2.486zm95.51 29.505c-1.406-.37-1.377-.395-1.532-1.838l24.812 4.44c.727.209.609 1.441.813 2.084z"/><path fill="#ebe9dc" d="M118.52 66.52c-.268-.75 3.743-12.902 4.167-15.249.12-.667.681-.972-.161-1.609l-33.915-7.724c-1.363.418-.931 1.388-1.135 2.304-.835 3.733-1.355 7.535-2.138 11.25-.217 1.026-.61 2.025-.837 3.049-1.393-.56-3.278-.303-4.662-.628-.596-.141-.977-.552-1.585-.699-1.586-.383-6.82-.812-8.468-.665-.553.05-1.244.153-1.681.518-.119.099-1.266 2.24-1.295 2.387-.487 2.396 3.338 2.118 4.787 2.408 7.27 1.45 14.55 3.029 21.853 4.419 7.222 1.375 14.858 3.231 22.317 3.518.315.011 1.958-.007 2.053-.048.152-.064 1.107-1.679 1.187-1.962.276-.97-.43-1.115-.486-1.27zm2.661-15.722-3.954 14.492-30.907-6.565 2.793-14.806zm-4.224 17.233-11.065-.936c-9.36-2.002-18.91-3.608-28.305-5.453-3.012-.591-5.945-1.515-9.001-1.843.082-.613.622-1.746 1.309-1.775 2.586.433 5.233.394 7.817.835 10.39 1.772 20.664 3.984 30.996 6.29 2.11.472 6.021.847 7.901 1.632.256.107.443.35.725.407l-.374.843zM66.484 36.536c-1.677-.372-3.65-1.427-5.236-1.805-.637-.152-1.252-.02-1.816-.152-2.102-.49-4.614-1.307-6.747-1.533-.65-.068-2.022.502-2.266 1.135-.25 3.43-1.423 6.616-2.16 9.969-.222 1.012-1.075 4.854-.58 5.45 1.943 1.124 4.307.89 6.369 1.248 2.526.44 5.128 1.19 7.687 1.454 1.113.114 1.363-.147 1.755-1.199 1.009-2.71.948-5.064 1.464-7.699.223-1.142 2.019-6.317 1.53-6.868m-14.29-1.775c.444-.383 4.55.857 5.534.907-.048.452-.521.17-.872.395-.79.507-1.931 1.845-2.388 2.674-.306.556-.272 1.27-.704 1.766-.548.63-2.153.676-2.938 1.065.444-1.045.764-6.285 1.368-6.806zm2.4 14.045c-.778.44-3.446.153-4.424-.02-.335-.058-.693.024-.935-.318-.438-.523.904-3.726.681-4.776 1.65-.92 4.189-.974 5.518-2.436.59-.65.168-2.154 2.07-3.629 3.022-2.345 4.198-.766 7.471.018-1.185 1.29-.325 3.113-1.416 4.582-1.003 1.349-3.926 1.513-5.276 2.33-1.505.912-1.971 3.277-3.689 4.249m7.108 1.949-5.29-1.126 2.68-3.872c1.37-.074 2.61-.637 3.841-1.197.249 2.163-.252 4.267-1.231 6.195M111.183 80.238c-1.077-1.79-5.046-2.607-6.86-1.561-.187.108-1.915 1.58-2.055 1.756-3.238 4.048 1.021 9.54 5.984 8.326.093-.022 1.616-.803 1.696-.863 1.979-1.495 2.708-3.409 2.026-5.785-.081-.283-.653-1.643-.79-1.872zm-8.204 4.321c-.701-2.475 1.798-5.102 4.305-4.804 1.346.16 2.992 1.578 3.258 2.93.955 4.831-6.258 6.48-7.564 1.874zM41.796 66.305c-.71-.866-2.958-2.508-4.04-2.683-4.16-.676-7.705 2.814-6.189 6.923.665 1.798 2.19 3.015 3.985 3.606 2.333.77 5.677-.652 6.595-3.026.482-1.246.493-3.79-.352-4.822zm-4.361 6.42c-3.572-.136-5.811-3.1-3.947-6.411.123-.221.443-.08.68-.245.205-.14.341-.437.608-.557 2.015-.901 4.28-.094 5.53 1.643 1.507 2.097-.294 5.667-2.87 5.569z"/></g><defs><clipPath id="a"><path fill="#fff" d="m19.99 0 146.908 40.086-19.99 73.261L0 73.261z"/></clipPath></defs></svg>