<svg xmlns="http://www.w3.org/2000/svg" xmlns:xlink="http://www.w3.org/1999/xlink" fill="none" viewBox="0 0 134 134"><g clip-path="url(#a)"><path fill="#dbd6c0" d="m24.183 42.842 44.96-22.258 26.218 4.604 17.977 59.962L74.7 110.672 40.342 113z"/><path fill="#d55c0c" d="M90.724 43.163c-.583-1.926-.94-4.214-1.817-6.08-.24-.512-2.205-2.574-2.664-2.794-.175-.084-2.137-.463-2.517-.518-15.89-2.269-32.929 2.72-44.63 14.135-1.258 1.226-2.784 4.165-2.498 5.919.746 4.592 3.08 8.953 4.659 13.262 2.255 6.15 4.307 12.355 6.84 18.271 1.69 3.95 3 7.394 6.154 10.556.456.456 1.16 1.02 1.769 1.211 2.513.796 8.874 1.157 11.575.99 10.18-.625 22.538-5.39 29.366-13.126.731-.83 1.37-2.254 2.261-3.088.523-1.078-.076-1.204-.158-1.956-1.363-12.441-4.743-24.914-8.339-36.782zm-4.733-4.17c-.114.402-.57.63-.736.945-3.84 7.243-15.428 13.477-23.288 15.182-6.198 1.344-12.426-.34-18.45-1.473-.018-2.828 1.694-3.944 4.173-4.744.227 2.642 2.343 3.963 4.801 4.324 5.14.754 14.216-1.379 18.27-4.68.3-.245 2.464-2.37 2.56-2.526.1-.169.583-1.67.634-1.943.186-1.01-.12-2.408-.84-3.155-.344-.355-.914-.23-1.254-.417-.287-.155-.463-.575-.816-.722-.578-.237-1.37.139-1.752-.504 2.476-.657 5.334-.145 7.76.6.139.043.22.43.681.47 2.544.226 2.726-.998 4.487-1.78 1.489-.662 2.476-.444 3.774.423zm-22.173 7.696 8.296-2.66-2.15 2.755c-.805.445-1.344 1.315-2.338 1.396-.241.019-.314-.414-.453-.45-1.08-.278-2.332-.334-3.355-1.04m1.876 2.758c-1.51.156-4.098 1.811-5.512 1.489-.417-.095-.527-.324-.397-.768.23-.796.997-1.72.788-2.68.016-.053.788.094.98.179.134.06.236.315.49.42 1.194.492 2.55.75 3.652 1.36zm5.617-6.927c-.365.129-.765-.036-1.129.094-2.408.861-4.862 1.757-7.377 2.458-.387.107-1.125.596-1.216.016 1.102-.112 1.099-1.138 1.606-1.692.671-.733 2.314-2.354 3.223-2.559.655-.146 3.206.479 3.901.782.47.206.936.276.993.9zm-11.448 2.04c-1.328.407-2.76-1.385-3.955-.92l1.886-1.27 5.302-1.58-3.232 3.772zm-1.004 3.093c-.276 1.13-.748 1.935-1.344 2.856-.176.272-.023.658-.234.772-1.718.935-4.761-.188-6.573-.487-.241-.425.706-.734.98-.815 1.232-.365 2.615-.549 3.918-.982.475-.159 3.068-1.42 3.253-1.342zm-.898-1.826.191.638c-1.482-.432-2.613.71-3.737 1.092-1.557.527-3.163.534-4.606 1.407-.434-2.294 2.146-3.405 3.738-4.499zM40.757 49.07c1.873-1.418 3.617-3.542 5.527-4.826 9.842-6.624 21.514-10.007 33.42-9.055 1.38.111 2.837.602 4.225.404.227.665.33.568-.286.785-.728.255-1.51.373-2.219.691-2.236 1.012-1.677 1.68-4.556.98-.236-.056-.315-.415-.648-.482-2.878-.573-5.412-.636-8.22.344-2.913 1.018-4.225.835-6.976 1.47-2.722.63-10.625 4.148-12.282 6.392-.25.339-.107.982-.411 1.101-.222.086-.745-.025-1.278.186-1.64.648-3.755 1.901-4.675 3.428-.243.404-.143 1.082-.336 1.172-1.52.703-1.914-1.557-1.285-2.588zm55.88 25.522c.378 2.04.307 4.312.824 6.362l-.12.474c-3.267 4.452-7.678 7.91-12.621 10.374-7.667 3.822-17.875 5.544-26.22 3.72-1.177-.257-2.438-.031-3.4-1.183-5.022-6.023-6.92-13.92-9.635-21.07-2.23-5.871-4.73-11.47-6.31-17.498-.125-.474-.573-.812-.641-1.318l.913-.464c2.555 1.386 5.65 1.706 8.487 2.249 3.578.683 7.537 1.544 11.24 1.112 9.568-1.114 20.65-7.094 26.66-14.688.435-.55 1.009-2.288 1.73-2.044 1.493.505 1.773 4.404 2.174 5.718 2.812 9.215 5.164 18.731 6.923 28.256z"/><path fill="#d55c0c" d="M62.157 69.719c-1.29.348-5.037 2.548-6.25 3.386-1.287.889-2.254 1.664-2.236 3.368.022 1.935 2.12 5.111 3.256 6.729-.897.47-3.366 2.733-2.712 3.787.84 1.356 2.832-2.273 3.931-2.052.187 1.004 1.57 3.607 2.369 4.101.537.332 4.132 1.255 5.004 1.449 1.024.227 3.323.717 4.262.611.851-.095 4.33-2.923 5.16-3.708.622-.588 2.366-2.348 2.262-3.087l-5.146-14.69c-3.204.234-6.782-.733-9.897.105zm4.875 19.2-5.687-1.681c-1.036-1.744-2.093-3.46-3.108-5.218-.215-.371-.634-.602-.83-.956-.577-1.057-1.393-2.947-1.852-4.089-.12-.298-.06-.622.158-.751.693-.41 5.88.28 6.538.843 1.132.968 1.26 3.8 1.81 5.208.358.916 3.11 6.307 2.971 6.643m-9.206-14.38c-.088-.495.302-.651.638-.866.798-.51 3.46-2.123 4.176-2.34.725-.218 1.448.037 2.17-.014 1.069-.077 2.018-.397 3.192-.173.67.243.086.593-.251.797-1.297.785-3.434 2.782-4.691 3.157-1.166.35-3.862-1.073-5.232-.56zm17.187 10.197c-.434.573-4.921 4.369-5.263 4.397-.423.036-1.023-.911-1.205-1.274-.594-1.187-.901-2.568-1.344-3.726-.149-.387-.66-.646-.884-1.134-.918-1.994-.925-4.7-2.3-6.466l7.03-4.558 4.268 12.137c.044.285-.157.427-.304.623zM91.424 73.144c-.5-2.533-2.997-3.536-4.489-5.43-.45-.305-1.458-.252-1.977-.09-1.182.367-4.535 2.247-5.544 3.072-2.475 2.026-1.377 2.322-1.008 4.845.064.433-.237.791-.196 1.111.183 1.44 2.105 5.101 2.744 6.71.218.551.256 1.58.524 2.04.737 1.264 1.574 2.089 3.04 1.779 2.166-.456 6.223-3.108 7.999-4.584 3.214-2.676 1.44-3.7.26-6.992 1.316.867 3.388.688 2.448-1.226-.088-.18-3.217-.907-3.8-1.234zm-8.627-2.51c1.915-1.044 3.395-2.112 4.714.253-2.753.864-4.819 3.08-7.637 3.688-.624-2.072 1.313-3.063 2.923-3.94m1.105 14.944c-.52-.17-2.256-5.383-2.628-6.357-.314-.822-1.079-1.347-.893-2.352.169-.913 2.073-1.189 2.924-1.657 1.114-.612 4.652-3.213 5.715-2.874.6.192 1.518 3.654 2.278 4.263l1.423 3.546c-2.847 1.921-5.504 4.366-8.82 5.43M75.213 62.513c.457-.443 2.047-4.153 1.455-4.46-1.978.173-1.83 1.428-2.434 2.723-.112.238-.454.394-.581.617-.813 1.426.557 2.09 1.56 1.121zM62.117 65.816c.107-.183.953-2.984.91-3.143-.302-1.087-1.521-.53-2.021.262-.117.186-1 2.307-1 2.438.007 1.002 1.47 1.527 2.11.441zM48.966 66.812c.366-.557 1.306-1.395 1.307-2.126 0-.503-.363-1.315-.859-1.264-1.024.106-3.405 4.673-1.406 4.618 1.047-.03.712-.852.958-1.228M56.566 60.05c-.519-.457-1.125-.71-1.748-.314.054 1.3-1.307 2.022-1.417 3.425l1.12.816c.472-.032 2.219-3.467 2.047-3.927zM85.465 57.006c.327-.555 1.455-3.007.405-3.296-1.388-.384-1.355.834-1.672 1.484-.131.269-.435.356-.483.648-.05.305.028 1.706.175 1.787.916-.056 1.066.236 1.575-.622zM66.367 59.486c-.27 1.124.193 1.986 1.414 1.177.463-.306 1.692-2.72 1.33-3.317-.875-1.45-2.443 1.575-2.744 2.14M80.649 53.466c.5-1.014 1.306-1.216.158-2.602-.76-.465-2.696 3.189-1.922 4.07 1.776.21 1.276-.476 1.764-1.466zM46.727 59.803l-1.125-.807c-.18.014-1.019.911-1.108 1.1-.257.546-.83 3.005.276 2.972 1.109-.032 1.638-2.423 1.956-3.265zM86.297 46.434c-.148.04-.66 1.73-.598 2.09.249 1.42 1.577.784 1.918-.049.462-1.126-.056-2.029-1.32-2.042z"/></g><defs><clipPath id="a"><path fill="#fff" d="M17.295 36.129 91.93 13.75l25.241 84.187-74.636 22.378z"/></clipPath></defs></svg>