<svg xmlns="http://www.w3.org/2000/svg" xmlns:xlink="http://www.w3.org/1999/xlink" fill="none" viewBox="0 0 90 107"><g clip-path="url(#a)"><path fill="#3f9a95" d="M43.372 0 20.516 4.333 0 34.6l10.945 53.336L51.307 107 90 74.562 68.775 11.026z"/><path fill="#ebe9dc" d="M72.144 54.073c-1.973-5.243-6.52-8.732-9.405-13.246-3.131-4.9-4.61-10.386-7.033-15.568-.603-1.292-1.295-3.916-1.748-4.773-3.326-6.305-11.287-8.614-17.752-6.6-5.393 1.678-9.486 6.485-11.069 11.942-1.265 4.36-.403 7.66-.59 11.905-.343 7.841-4.392 13.09-6.416 20.448-2.251 8.185.338 14.854 6.012 20.908 10.155 10.83 29.365 13.248 40.634 3.092 8.139-7.336 11.278-17.704 7.363-28.108zm-30.066 32.11c-1.075-.178-4.112-.89-5.077-1.229-8.186-2.862-15.44-9.637-17.027-18.239-.035-.19-.464-.44-.538-.81-.56-2.746.992-7.85 1.868-10.581 1.026-3.2 2.326-5.186 3.617-8.078 1.004-2.25 1.796-8.067 1.858-10.616.034-1.32-.522-2.78-.432-4.255.138-2.195.537-5.374 1.3-7.458.985-2.685 4.5-7.264 7.146-8.454 1.735-.778 4.6-1.367 6.514-1.286.46.02 1.877.052 2.109.213.587.41-.079 1.21-.529 1.37-.635.223-1.75.02-2.627.357-7.828 3.007-6.07 13.555-6.05 20.033.029 9.519-5.138 19.225-3.305 28.38 1.308 6.535 4.03 11.546 9.18 15.96 1.741 1.49 4.006 2.512 6.051 3.502l-.043 1.031c-.143.356-3.385.265-4.013.16zm16.746-3.59C52.26 84.538 46.317 84.16 40.98 79.41c-1.741-1.55-4.98-5.14-5.947-7.196-3.167-6.728-2.535-14.24-.951-21.295.974-4.338 2.14-7.238 2.257-11.913.138-5.419-1.955-15.526 3.147-19.187.566-.405 2.945-1.239 3.627-1.233 4.888.04 8.346 2.756 10.581 6.974 2.501 4.72 3.721 10.62 6.568 15.582 2.31 4.028 6.088 6.836 8.51 10.94 1.798 3.047 2.089 5.063 2.503 8.391.042.33.44.477.486.808 1.088 7.905-5.328 19.06-12.937 21.314"/><path fill="#ebe9dc" d="M60.693 56.917c-.218-.603-.122-1.164-.515-2.01-.322-.69-2.756-4.286-3.208-4.678-2.297-1.99-6.348-2.056-8.582.054-2.5 2.363-3.273 4.917-3.756 8.22-.684 4.687 1.026 11.522 4.104 15.17 3.138 3.713 7.503 3.38 10.638-.07 2.5-2.75 2.804-7.252 2.629-10.882-.126-2.61-.466-3.47-1.31-5.804M57.82 71.698c-4.677 5.094-7.962-.38-9.842-4.763-1.442-3.358-1.527-8.59-.087-11.968.187-.44 1.497-2.632 1.73-2.886.355-.39.94-.074 1.221-.22.4-.211.419-.853 1.246-.986.571-.09 2.77.443 3.225.812 1.547 1.259 3.995 6.34 4.401 8.36.428 2.131.322 7.914-.497 9.848-.342.81-.846 1.203-1.397 1.803"/></g><defs><clipPath id="a"><path fill="#fff" d="M0 0h90v107H0z"/></clipPath></defs></svg>