<svg width="100" height="100" viewBox="0 0 100 100" fill="none" xmlns="http://www.w3.org/2000/svg">
<g clip-path="url(#clip0_158_2253)">
<path d="M54.6548 13.793L27.189 24.0972L13.8395 42.488L11.6074 66.0221L37.3449 86.2066L73.7215 73.8217L88.3927 51.9201L75.7543 25.8845L54.6548 13.793Z" fill="#B8DFDB"/>
<path d="M68.3045 36.194C65.9959 31.3759 64.0811 27.7934 59.357 25.0623C56.5988 23.468 55.6837 22.9482 52.471 23.6274C48.6797 24.4278 41.6008 27.2737 39.0626 30.2997C34.3258 35.9469 32.6246 41.2529 30.7385 48.1787C29.7309 51.876 29.6049 56.0149 27.1337 59.1574C26.5358 59.9195 25.187 60.9319 24.7326 61.6079C22.6775 64.6595 23.9913 67.9183 27.9118 67.8067C28.9927 67.7764 29.9334 67.1068 30.8119 66.9139C36.459 65.6799 42.7711 68.808 48.4071 69.6083C54.5772 70.4852 61.562 70.388 66.9621 66.9792C70.7135 64.6116 73.1083 63.1385 73.7715 58.467C74.6819 52.045 71.1137 42.0596 68.3045 36.1956V36.194ZM63.5374 32.9623C63.8834 33.2126 64.4637 33.1823 64.7108 33.3577C65.7153 34.072 68.837 41.6052 69.4253 43.2315C69.8941 44.5293 70.6864 45.8016 70.1236 47.0786C69.6565 46.527 69.0682 46.7135 68.6584 46.5238C68.1849 46.3054 67.8374 45.8765 67.3064 45.6612C66.2255 45.2228 62.2715 45.0841 61.9909 44.0526L63.539 32.9591L63.5374 32.9623ZM55.4636 25.1851C56.7232 25.4019 59.7269 27.1047 60.6166 28.0374C63.193 30.7414 61.444 34.8309 61.3165 38.1136L60.5544 41.7487C60.0474 40.4637 59.0413 39.4545 58.3861 38.2683C57.1106 35.9581 55.7219 33.5219 54.5054 31.1671C54.1005 30.3842 52.2431 26.4063 52.2829 25.8946C53.0115 25.2154 54.5038 25.0209 55.462 25.1867L55.4636 25.1851ZM50.3601 28.2558L51.253 28.3004L58.8277 42.3737C58.5933 42.6001 56.3517 41.2959 55.8622 41.1046C54.5054 40.5769 49.732 39.4369 49.0847 38.4006C48.6797 37.7533 48.7355 36.4045 48.7833 35.6217C48.8599 34.3398 49.1899 32.2703 49.5008 31.0076C49.7383 30.0399 50.3314 29.2522 50.3617 28.2558H50.3601ZM59.9533 44.872C59.5914 46.0965 59.6456 47.5633 59.3953 48.7447C59.0095 50.5686 58.1979 52.9538 57.6144 54.8064C57.49 55.2018 57.5586 55.5892 57.1042 55.8603C53.7354 52.155 51.4236 47.8312 49.7894 43.0928L49.8053 42.1186C51.3566 40.5067 52.5412 41.9416 54.1132 42.5411C54.861 42.8265 55.7474 42.6049 56.4123 43.3797L59.9533 44.872ZM62.1025 67.4512C59.4176 67.8354 56.315 68.5816 53.6445 68.4189C51.2466 68.2739 48.1934 67.6552 45.7939 67.2025C40.6697 66.2347 35.791 64.2035 30.4484 64.9799C28.8715 65.2095 27.8942 66.4579 26.2106 65.4168C24.3261 64.2513 27.2421 62.1117 27.9038 61.1822C29.0166 59.6213 30.5711 56.7738 31.0686 54.934C32.6948 48.9249 33.4298 42.1218 36.6057 36.6277C37.3264 35.3809 39.7912 31.7936 40.7223 30.8625C41.4924 30.0925 47.0646 26.8623 48.1456 26.5195C48.5697 26.384 48.9699 26.3234 49.4115 26.376C49.6012 26.5578 47.7614 30.4974 47.5971 31.3058C46.3073 37.6353 47.6513 42.4678 50.054 48.166C52.0214 52.8326 55.5226 56.9668 59.3507 60.3579C59.5723 60.554 59.6344 60.9654 59.9103 61.2029C61.0933 62.2185 64.2341 63.427 64.4191 65.1697C64.5482 66.375 63.1978 67.2949 62.0993 67.4528L62.1025 67.4512ZM67.9282 62.7654C67.375 62.7686 66.8154 62.8228 66.2653 62.7016C65.5957 62.5549 62.8056 61.2428 62.1711 60.8346C61.0694 60.1283 58.7145 57.7831 58.8803 56.4087L61.3388 47.3959L62.407 48.9902C63.6426 51.4184 64.6949 53.8705 65.7169 56.3481C66.0963 57.2681 68.4033 62.3094 67.9266 62.7654H67.9282ZM71.0324 61.4788L69.5369 61.4708L66.4216 53.1355L62.9076 46.4552C63.8196 46.7821 64.8256 46.6689 65.7424 46.9128C66.6735 47.1615 70.932 49.1114 71.3226 49.805C71.887 50.8094 71.5538 51.8983 71.6861 52.8916C71.8152 53.8482 72.2266 55.036 72.2202 55.9655C72.2154 56.6989 71.4693 61.1774 71.0308 61.4788H71.0324Z" fill="#1D8782"/>
<path d="M36.7403 56.5057C35.578 56.8134 36.431 59.3946 38.1242 58.5353C39.7648 57.703 37.901 56.198 36.7403 56.5057Z" fill="#1D8782"/>
<path d="M41.7085 42.0418C40.9416 43.5644 43.1083 44.757 43.9405 43.3173L43.416 41.7852L41.7085 42.0418Z" fill="#1D8782"/>
<path d="M45.3371 57.7488C44.8333 59.1343 46.4547 60.9407 47.389 59.3161C47.6377 58.884 46.1646 57.202 45.3371 57.7488Z" fill="#1D8782"/>
</g>
<defs>
<clipPath id="clip0_158_2253">
<rect width="76.7853" height="72.4136" fill="white" transform="translate(11.6074 13.793)"/>
</clipPath>
</defs>
</svg>
