<svg xmlns="http://www.w3.org/2000/svg" xmlns:xlink="http://www.w3.org/1999/xlink" fill="none" viewBox="0 0 28 28"><rect width="28" height="28" fill="#d33b0d" rx="14"/><g clip-path="url(#a)"><path fill="#ebe9dc" d="m22.973 14-.002-.154-3.92-.852 3.367-2.104a9 9 0 0 0-.104-.267l-5.366.715 2.368-2.368.181 1.432 1.26-2.998-.162-.162-2.997 1.26 1.432.182-2.369 2.369.715-5.368a8 8 0 0 0-.267-.104l-2.104 3.37-.851-3.922L14 5.027l-.154.002-.852 3.92-2.105-3.368a9 9 0 0 0-.266.104l.714 5.366L8.97 8.684l1.431-.182-2.998-1.259-.161.162 1.26 2.997.182-1.432 2.367 2.367-5.367-.714a8 8 0 0 0-.104.267l3.37 2.104-3.92.852-.003.154.002.154 3.921.852-3.369 2.104q.05.135.104.267l5.367-.714-1.002 1.003-1.901.286-.382.382H9.38l-1.886.271-.38.381h1.614l-1.886.271-.391.391 1.604.011-.523.523.286.286.522-.522.01 1.603.397-.396.27-1.885v1.613l.382-.38.271-1.885v1.613l.377-.377.32-1.934.968-.968-.713 5.365q.131.054.266.104l2.105-3.37.852 3.922.154.002.154-.002.852-3.921 2.104 3.369q.135-.05.267-.104l-.714-5.367.967.968.322 1.936.383.382V18.62l.27 1.886.382.38v-1.614l.271 1.886.391.39.01-1.603.524.523.286-.286-.523-.522 1.603-.01-.396-.397-1.884-.271h1.613L20.5 18.6l-1.884-.271h1.613l-.378-.377-1.946-.334-.956-.956 5.366.715q.054-.132.104-.267l-3.37-2.105 3.922-.852.002-.154zm-12.219 0c0-.823.308-1.574.815-2.147l1.505 1.506.286-.286-1.505-1.505a3.23 3.23 0 0 1 4.291 0l-4.578 4.58a3.24 3.24 0 0 1-.814-2.149zm5.678 2.145-1.508-1.509-.286.286 1.508 1.51a3.23 3.23 0 0 1-2.147.814 3.23 3.23 0 0 1-2.146-.812l4.578-4.578a3.233 3.233 0 0 1 0 4.29z"/></g><defs><clipPath id="a"><path fill="#fff" d="M5.027 5.027h17.945v17.945H5.027z"/></clipPath></defs></svg>