<svg width="43" height="43" viewBox="0 0 43 43" fill="none" xmlns="http://www.w3.org/2000/svg">
<path d="M42.8698 21.4349C42.8698 21.3123 42.8668 21.1896 42.8652 21.067L33.4991 19.032L41.545 14.0053C41.4662 13.7918 41.383 13.5798 41.2967 13.3679L28.4784 15.0742L34.1335 9.41912L34.5666 12.8394L37.575 5.67782C37.4479 5.54761 37.3192 5.41891 37.1889 5.29173L30.0288 8.30173L33.4507 8.73627L27.7925 14.3944L29.5004 1.57162C29.29 1.48532 29.078 1.40204 28.863 1.32331L23.8347 9.37218L21.8028 0.00454225C21.6802 0.00302817 21.5575 0 21.4349 0C21.3123 0 21.1896 0.00302817 21.067 0.00454225L19.032 9.37067L14.0038 1.32331C13.7903 1.40204 13.5783 1.48532 13.3663 1.57162L15.0727 14.3899L9.41761 8.73475L12.8379 8.30173L5.6763 5.29324C5.54609 5.42042 5.41739 5.54912 5.29021 5.67933L8.30021 12.8394L8.73475 9.41761L14.3899 15.0727L1.56859 13.3679C1.48229 13.5783 1.39901 13.7903 1.32028 14.0053L9.36915 19.032L0.00454225 21.067C0.00302817 21.1896 0 21.3123 0 21.4349C0 21.5575 0.00302817 21.6802 0.00454225 21.8028L9.37218 23.8377L1.32331 28.8645C1.40204 29.078 1.48532 29.2915 1.57162 29.5019L14.3929 27.7971L11.9976 30.1924L7.45687 30.8752L6.54387 31.7882H10.4002L5.89584 32.4362L4.98588 33.3462H8.84225L4.33785 33.9942L3.40366 34.9284L7.2343 34.9542L5.98518 36.2033L6.66803 36.8861L7.91563 35.6385L7.94137 39.4676L8.88768 38.5213L9.5357 34.02V37.8733L10.4457 36.9633L11.0937 32.462V36.3153L11.9946 35.4144L12.7607 30.7935L15.0712 28.483L13.3663 41.2982C13.5768 41.3845 13.7888 41.4677 14.0038 41.5465L19.0305 33.4976L21.067 42.8652C21.1896 42.8668 21.3123 42.8698 21.4349 42.8698C21.5575 42.8698 21.6802 42.8668 21.8028 42.8652L23.8377 33.4976L28.8645 41.5465C29.078 41.4677 29.2915 41.3845 29.5019 41.2982L27.7971 28.4784L30.1076 30.7889L30.8767 35.4144L31.7897 36.3274V32.4711L32.4377 36.9755L33.3477 37.8854V34.029L33.9957 38.5335L34.9299 39.4676L34.9557 35.637L36.2048 36.8861L36.8876 36.2033L35.64 34.9557L39.4692 34.9299L38.5229 33.9836L34.0215 33.3356H37.8748L36.9649 32.4256L32.4635 31.7776H36.3168L35.416 30.8767L30.7662 30.0803L28.483 27.7971L41.3012 29.5035C41.3875 29.293 41.4708 29.081 41.5495 28.866L33.5006 23.8377L42.8683 21.8028C42.8698 21.6802 42.8728 21.5575 42.8728 21.4349H42.8698ZM13.6813 21.4349C13.6813 19.4696 14.4171 17.6754 15.6269 16.3067L19.2228 19.9026L19.9057 19.2198L16.3097 15.6238C17.6769 14.4171 19.4711 13.6813 21.4334 13.6813C23.3956 13.6813 25.1929 14.4171 26.5616 15.6269L15.6238 26.5646C14.3868 25.1641 13.6813 23.3502 13.6813 21.4334V21.4349ZM27.2444 26.5586L23.6409 22.955L22.9581 23.6379L26.5616 27.2429C25.1944 28.4527 23.3987 29.1885 21.4334 29.1885C19.8981 29.1885 18.4158 28.7404 17.144 27.894C16.8472 27.6971 16.5686 27.4791 16.3067 27.249L27.2429 16.3127C28.4496 17.68 29.1855 19.4742 29.1855 21.4364C29.1855 23.3987 28.4512 25.1929 27.2429 26.5601L27.2444 26.5586Z" fill="#EBE9DC"/>
</svg>
