<svg xmlns="http://www.w3.org/2000/svg" fill="none" viewBox="0 0 94 28"><path fill="#ebe9dc" d="M79.566 0C72 0 65.84 6.125 65.84 13.703s6.135 13.703 13.726 13.703c7.59 0 13.725-6.125 13.725-13.703S87.157 0 79.567 0m0 24.266c-5.827 0-10.581-4.72-10.581-10.563S73.713 3.14 79.565 3.14s10.582 4.72 10.582 10.563-4.729 10.563-10.581 10.563"/><path fill="#ebe9dc" d="M79.925 7.73c.23.103.64.408.64.741V21.97h4.32V5.282l-4.958 2.45zM73.637 7.73c.23.103.64.408.64.741V21.97h4.32V5.282l-4.959 2.45zM0 3.163h16.46c3.63 0 5.267.357 6.39 1.456 1.278 1.275 1.765 2.857 1.765 5.919 0 6.15-1.637 7.833-7.591 7.833l-1.15-.026h-9.66v5.052H0zm15.207 10.284h.512c2.02 0 2.684-.613 2.684-2.578 0-2.067-.69-2.756-2.684-2.756H6.237l-.025 5.359 8.997-.025zM33.356 3.163H27.17v20.261h6.186zM55.873 13.294l10.249 10.13h-8.486l-6.825-7.273-6.85 7.273h-8.408l10.173-10.13-9.585-10.13h8.205l6.543 7.247 6.518-7.248h7.973z"/></svg>