<svg xmlns="http://www.w3.org/2000/svg" fill="none" viewBox="0 0 63 43"><path fill="#ebe9dc" d="M0 41.382q0-4.503 1.311-8.037t4.617-6.612q3.363-3.135 9.291-6.27 2.565-1.311 4.161-2.508t2.337-2.565.741-3.306q0-1.995-.798-3.42t-2.394-2.223q-1.596-.855-3.99-.855-3.876 0-6.099 2.052-2.166 2.052-2.736 5.871L.228 13.11q.627-5.985 4.503-9.519Q8.607 0 15.276 0q4.332 0 7.296 1.482 3.021 1.482 4.56 4.161t1.539 6.213q0 3.135-1.026 5.415t-3.42 4.218-6.555 4.161q-3.477 1.881-5.814 3.705-2.28 1.767-3.477 3.42-1.14 1.596-1.254 2.964h21.603v5.643zM38.51 35.34 54.014 6.669l4.56.285L43.07 35.625zm10.032 6.954q-4.447 0-7.695-2.565-3.25-2.565-4.96-7.296t-1.71-11.229q0-6.555 1.71-11.286t4.96-7.296Q44.095 0 48.542 0q4.503 0 7.695 2.622 3.249 2.565 4.959 7.296t1.71 11.286q0 6.498-1.71 11.229t-4.96 7.296q-3.19 2.565-7.694 2.565m0-5.586q2.565 0 4.332-1.824 1.824-1.881 2.793-5.358 1.026-3.477 1.026-8.322 0-4.959-1.026-8.436-.969-3.477-2.793-5.301-1.767-1.881-4.332-1.881-2.508 0-4.332 1.881-1.824 1.824-2.85 5.301-.97 3.477-.97 8.436 0 4.845.97 8.322 1.026 3.477 2.85 5.358 1.824 1.824 4.332 1.824"/></svg>