<svg xmlns="http://www.w3.org/2000/svg" fill="none" viewBox="0 0 349 42"><path fill="#ebe9dc" d="M0 40.656V.896h24.864v5.432H2.52l3.36-3.192v18.256l-3.36-2.856h21.336v5.376H2.52l3.36-2.856v19.6zM45.45 41.552q-4.76 0-8.064-2.408-3.248-2.407-4.984-7.056-1.736-4.648-1.736-11.256 0-6.72 1.736-11.368t4.984-7.056Q40.69 0 45.45 0t8.064 2.408 4.984 7.056q1.736 4.648 1.736 11.368 0 6.608-1.736 11.256-1.68 4.648-4.984 7.056t-8.064 2.408m0-5.488q2.8 0 4.704-1.68 1.96-1.68 2.968-5.096t1.008-8.456-1.008-8.456q-1.008-3.472-2.968-5.152-1.904-1.736-4.704-1.736t-4.76 1.736q-1.904 1.68-2.912 5.152-1.008 3.416-1.008 8.456t1.008 8.456 2.912 5.096q1.96 1.68 4.76 1.68M66.54 40.656V.896h12.376q6.328 0 9.912 3.192 3.64 3.192 3.64 8.68 0 2.856-1.288 5.04-1.231 2.184-3.304 3.416a9.5 9.5 0 0 1-4.312 1.4l-.224-.672q4.144.168 6.16 1.904 2.073 1.68 2.408 5.488l1.008 11.312h-5.88l-.896-10.192q-.168-1.96-.84-3.136t-2.072-1.68-3.864-.504H72.42v15.512zm5.88-21h6.384q3.696 0 5.656-1.736t1.96-4.872q0-3.192-1.96-4.872Q82.5 6.44 78.804 6.44H72.42zM118.073 40.656V.896h24.864v5.432h-22.345l3.36-3.192v18.256l-3.36-2.856h21.336v5.376h-21.336l3.36-2.856v19.6zM150.475 40.656V.896h12.376q6.327 0 9.912 3.192 3.64 3.192 3.64 8.68 0 2.856-1.288 5.04-1.233 2.184-3.304 3.416a9.5 9.5 0 0 1-4.312 1.4l-.224-.672q4.143.168 6.16 1.904 2.072 1.68 2.408 5.488l1.008 11.312h-5.88l-.896-10.192q-.168-1.96-.84-3.136t-2.072-1.68-3.864-.504h-6.944v15.512zm5.88-21h6.384q3.696 0 5.656-1.736t1.96-4.872q0-3.192-1.96-4.872-1.96-1.736-5.656-1.736h-6.384zM185.229 40.656v-5.544h9.52V6.44h-9.52V.896h24.864V6.44h-9.52v28.672h9.52v5.544zM219.927 40.656V.896h24.416V6.44h-18.536v11.592h17.864v5.376h-17.864v11.704h18.984v5.544zM252.945 40.656V.896h7.168l13.048 31.416V.896h5.768v39.76h-7.168L258.713 9.24v31.416zM287.923 40.656V.896h9.688q5.264 0 9.128 2.352 3.92 2.296 5.992 6.776 2.128 4.425 2.128 10.808 0 6.384-2.128 10.808-2.072 4.425-5.992 6.72-3.864 2.295-9.128 2.296zm5.88-5.544h3.64q5.432 0 8.344-3.528 2.968-3.584 2.968-10.752t-2.968-10.752q-2.912-3.64-8.344-3.64h-3.64zM334.717 41.552q-4.311 0-7.56-1.736A13.44 13.44 0 0 1 322.061 35q-1.904-3.135-2.24-7.28l6.048-.392q.392 2.857 1.568 4.816 1.176 1.96 3.08 2.968 1.904.952 4.424.952 2.464 0 4.144-.616 1.68-.672 2.576-1.904t.896-2.968q0-1.792-.84-3.136t-3.024-2.464-6.384-2.296q-4.087-1.12-6.664-2.52t-3.752-3.472q-1.176-2.072-1.176-5.152 0-3.416 1.568-5.992 1.625-2.632 4.592-4.088Q329.901.001 334.101 0q4.144 0 7.056 1.624a11.8 11.8 0 0 1 4.648 4.536q1.737 2.856 2.128 6.72l-6.048.336q-.28-2.296-1.288-4.032a6.75 6.75 0 0 0-2.632-2.688q-1.68-1.008-4.032-1.008-3.303 0-5.264 1.624-1.904 1.568-1.904 4.144 0 1.736.784 2.856.785 1.12 2.744 2.016t5.488 1.848q4.761 1.288 7.56 2.968 2.8 1.68 4.032 4.032t1.232 5.6-1.736 5.768q-1.736 2.464-4.872 3.864-3.08 1.344-7.28 1.344"/></svg>