<svg xmlns="http://www.w3.org/2000/svg" fill="none" viewBox="0 0 471 42"><path fill="#ebe9dc" d="M11.872 35.84 5.04 7.392l.616-.056v33.32H0V.896h7.84l7.392 30.184h-2.24L20.384.896h7.84v39.76h-5.656V7.336l.616.056-6.832 28.448zM32.794 40.656 44.442.896h7.616l11.648 39.76h-6.104L48.25 7l-9.352 33.656zm6.496-10.36 1.792-5.432h14.336l1.792 5.432zM70.236 40.656V.896h9.688q5.264 0 9.128 2.352 3.92 2.296 5.992 6.776 2.128 4.425 2.128 10.808 0 6.384-2.128 10.808-2.071 4.425-5.992 6.72-3.864 2.295-9.128 2.296zm5.88-5.544h3.64q5.433 0 8.344-3.528Q91.068 28 91.068 20.832T88.1 10.08q-2.911-3.64-8.344-3.64h-3.64zM104.654 40.656V.896h24.416V6.44h-18.536v11.592h17.864v5.376h-17.864v11.704h18.984v5.544zM155.291 40.656V.896h11.536q6.552 0 9.968 2.856t3.416 7.952q0 2.464-1.12 4.424-1.12 1.904-3.304 3.08-2.129 1.12-5.096 1.176v-.336q3.64 0 6.104 1.232 2.52 1.176 3.808 3.36 1.287 2.128 1.288 4.984 0 5.265-3.64 8.176-3.585 2.856-10.08 2.856zm5.88-5.488h7.056q3.864 0 5.712-1.512 1.848-1.568 1.848-4.312 0-2.911-1.96-4.536-1.905-1.624-5.6-1.624h-7.056zm0-17.416h5.768q3.696 0 5.432-1.456 1.736-1.512 1.736-4.2 0-2.745-1.736-4.2-1.736-1.512-5.432-1.512h-5.768zM198.669 40.656V24.304L186.853.896h6.496l8.232 17.36 8.232-17.36h6.496l-11.76 23.408v16.352zM239.505 40.656V.896h24.864v5.432h-22.344l3.36-3.192v18.256l-3.36-2.856h21.336v5.376h-21.336l3.36-2.856v19.6zM271.907 40.656V.896h12.376q6.329 0 9.912 3.192 3.64 3.192 3.64 8.68 0 2.856-1.288 5.04-1.232 2.184-3.304 3.416a9.5 9.5 0 0 1-4.312 1.4l-.224-.672q4.144.168 6.16 1.904 2.072 1.68 2.408 5.488l1.008 11.312h-5.88l-.896-10.192q-.168-1.96-.84-3.136t-2.072-1.68-3.864-.504h-6.944v15.512zm5.88-21h6.384q3.696 0 5.656-1.736t1.96-4.872q0-3.192-1.96-4.872-1.96-1.736-5.656-1.736h-6.384zM306.661 40.656v-5.544h9.52V6.44h-9.52V.896h24.864V6.44h-9.52v28.672h9.52v5.544zM341.359 40.656V.896h24.416V6.44h-18.536v11.592h17.864v5.376h-17.864v11.704h18.984v5.544zM374.378 40.656V.896h7.168l13.048 31.416V.896h5.768v39.76h-7.168L380.146 9.24v31.416zM409.356 40.656V.896h9.688q5.264 0 9.128 2.352 3.92 2.296 5.992 6.776 2.128 4.425 2.128 10.808 0 6.384-2.128 10.808-2.073 4.425-5.992 6.72-3.864 2.295-9.128 2.296zm5.88-5.544h3.64q5.431 0 8.344-3.528 2.967-3.584 2.968-10.752T427.22 10.08q-2.913-3.64-8.344-3.64h-3.64zM456.15 41.552q-4.312 0-7.56-1.736A13.44 13.44 0 0 1 443.494 35q-1.905-3.135-2.24-7.28l6.048-.392q.392 2.857 1.568 4.816 1.175 1.96 3.08 2.968 1.904.952 4.424.952 2.463 0 4.144-.616 1.68-.672 2.576-1.904t.896-2.968q0-1.792-.84-3.136t-3.024-2.464-6.384-2.296q-4.089-1.12-6.664-2.52-2.577-1.4-3.752-3.472-1.176-2.072-1.176-5.152 0-3.416 1.568-5.992 1.623-2.632 4.592-4.088Q451.334.001 455.534 0q4.143 0 7.056 1.624a11.8 11.8 0 0 1 4.648 4.536q1.735 2.856 2.128 6.72l-6.048.336q-.28-2.296-1.288-4.032a6.76 6.76 0 0 0-2.632-2.688q-1.68-1.008-4.032-1.008-3.305 0-5.264 1.624-1.904 1.568-1.904 4.144 0 1.736.784 2.856.783 1.12 2.744 2.016 1.96.896 5.488 1.848 4.76 1.288 7.56 2.968t4.032 4.032 1.232 5.6-1.736 5.768q-1.737 2.464-4.872 3.864-3.08 1.344-7.28 1.344"/></svg>