<svg xmlns="http://www.w3.org/2000/svg" fill="none" viewBox="0 0 823 176"><path fill="#ebe9dc" d="M714.832 4.476v45.911h30.904v120.717h45.911V50.387h30.889V4.477zM584.488 88.938c0 47.762 38.852 86.614 86.614 86.614a86.1 86.1 0 0 0 30.201-5.452v-57.461c-7.045 8.953-17.963 14.721-30.201 14.721-21.191 0-38.422-17.246-38.422-38.422s17.231-38.422 38.422-38.422c12.252 0 23.171 5.768 30.201 14.72V7.777a86.1 86.1 0 0 0-30.201-5.452c-47.762 0-86.614 38.852-86.614 86.614M482.624 171.104l97.561-.072v-45.91h-51.65v-14.405h39.555v-45.91h-39.555V50.401h51.65V4.49l-97.561-.058zM420.802 4.476h-38.493V50.43h38.636l.115 38.336c0 21.363-17.388 36.37-38.751 36.37v48.292c46.685 0 84.662-37.977 84.662-84.662V4.419h-46.169v.057M364.618 125.136H256.914v45.954h107.704zM310.889 0c-32.382 0-58.738 26.356-58.738 58.737s26.356 58.737 58.738 58.737 58.737-26.355 58.737-58.737C369.626 26.356 343.27 0 310.889 0m0 73.644c-8.221 0-14.907-6.686-14.907-14.907s6.686-14.906 14.907-14.906 14.906 6.685 14.906 14.906-6.685 14.907-14.906 14.907M240.099 58.135c0-29.527-24.017-53.63-53.529-53.63l-59.168-.072v166.671h45.911v-51.133l23.329 51.133h50.459l-31.134-68.249c14.534-9.584 24.147-26.04 24.147-44.706zM181.175 84.69h-7.876v-37.69h7.876c10.402 0 18.853 8.437 18.853 18.853 0 10.415-8.437 18.852-18.853 18.852zM62.783 4.606 0 4.433v166.671h45.91V125.48h16.873c30.717 0 53.486-29.727 53.486-59.225v-2.424c0-29.498-23.988-59.225-53.486-59.225m-7.661 79.268H45.91V47.647h9.21c9.986 0 18.107 8.12 18.107 18.106S65.108 83.86 55.122 83.86z"/></svg>