<svg xmlns="http://www.w3.org/2000/svg" fill="none" viewBox="0 0 486 175"><path fill="#ebe9dc" d="M481.061 125.251H373.356v45.954h107.705zM427.216 117.474c32.381 0 58.737-26.355 58.737-58.737C485.953 26.356 459.597 0 427.216 0s-58.737 26.356-58.737 58.737 26.355 58.737 58.737 58.737m0-73.643c8.221 0 14.906 6.685 14.906 14.906s-6.685 14.907-14.906 14.907-14.907-6.686-14.907-14.907 6.686-14.907 14.907-14.907M322.768 174.232a86.2 86.2 0 0 0 30.215-5.452v-57.461c-7.044 8.953-17.962 14.721-30.215 14.721-21.191 0-38.422-17.246-38.422-38.422s17.246-38.422 38.422-38.422c12.253 0 23.171 5.768 30.215 14.72V6.47a86.2 86.2 0 0 0-30.215-5.451c-47.762 0-86.614 38.852-86.614 86.613s38.852 86.614 86.614 86.614zM195.352 4.548h-51.277L96.342 171.22h44.777l5.194-18.164h46.815l5.193 18.164h44.778zm-36.715 105.466 11.076-38.68 11.076 38.68zM30.89 171.219H76.8V50.502h30.904V4.592H0v45.91h30.89z"/></svg>