<svg xmlns="http://www.w3.org/2000/svg" fill="none" viewBox="0 0 161 104"><path fill="#ebe9dc" d="M109.561 69.6c.487 2.077 1.616 3.999 3.615 5.557 8.395 6.544 23.377.329 47.014-23.13 2.294-2.286-.73-6.545-3.511-4.034-8.256 7.011-16.842 14.058-26.661 19.217-3.876 1.957-9.09 4.052-13.018 3.965-.348-.139.104-2.216.33-3.255.261-.71.504-1.575.921-2.476 7.63-.329 21.1-3.324 19.275-10.595-.939-3.81-4.658-6.787-8.482-7.393-4.414-.71-8.759 1.454-12.044 4.294a3.3 3.3 0 0 0-.556.467c-.087.104-.192.208-.296.312-.156.155-.33.294-.469.45-.435.45-.852.935-1.269 1.437-3.528 3.791-7.265 7.548-11.158 10.959-2.642 2.32-5.77 4.865-9.02 6.25.226-4.103 2.016-8.033 2.224-12.292.087-3.913-1.164-7.514-4.623-9.505-4.345-2.407-7.647.156-10.95 2.718-4.692 3.74-8.463 8.224-12.044 12.864.417-2.424.974-5.021 1.564-7.462 4.154-17.66 10.898-34.592 18.215-51.074 1.842.156 3.667.45 5.388.97.174-.018.347.138.712.26-.139.345-.243.882-.4 1.055-.4 1.056-.973 1.974-1.737 2.736-2.243 2.787 4.849 8.466 7.09 5.679 3.147-3.913 3.859-8.224.21-12.068C95.847 1.368 89.608.346 83.96.122 66.145-.813 47.566 3.758 30.829 9.506 20.33 13.193 10.094 17.712.917 23.979c-3.337 2.234 3.303 8.293 5.997 6.476 12.965-9.055 28.347-14.82 43.78-18.543-6.848 15.166-11.332 31.614-14.999 47.802-1.842 7.998-3.476 16.326-4.084 24.706-.417 5.47-.765 11.617 1.999 16.585 1.738 3.377 9.211 4.762 6.239-.519-1.72-3.203-.678-10.786-.278-14.907.956-8.258 2.624-16.412 4.606-24.601 3.632-14.994 7.7-30.54 14.321-44.668.817-1.784-1.842-4.38-4.328-5.298 7.63-1.853 15.312-3.203 23.081-3.878.556-.052 1.13-.087 1.703-.122-7.317 16.552-13.712 33.692-17.345 51.386-1.164 6.406-4.588 18.663 2.868 22.94.92.571 3.215 1.35 4.119.225C74.626 72.923 79.98 64.37 88.479 58c-.313 1.731-.817 3.48-1.304 5.228-.677 3.134-1.338 6.423-.312 9.54 2.016 5.886 6.482 7.773 11.835 5.315 4.345-2.043 7.7-4.917 10.88-8.5zm14.599-12.293c1.721-1.385 5.788-3.186 5.649-2.822-.556 1.074-1.651 2.043-2.59 2.822-1.564 1.195-3.528 1.922-5.544 2.303.939-.78 1.703-1.541 2.468-2.303zM95.622 8.52l-.191-.156c.174-.017.191.156.191.156m-.973-1.091v-.173c.156-.017-.017 0 0 .173"/></svg>